<?xml version="1.0" encoding="UTF-8"?>
<svg width="50px" height="31px" viewBox="0 0 50 31" version="1.1" xmlns="http://www.w3.org/2000/svg" xmlns:xlink="http://www.w3.org/1999/xlink">
    <!-- Generator: Sketch 50.2 (55047) - http://www.bohemiancoding.com/sketch -->
    <title>aws</title>
    <desc>Created with Sketch.</desc>
    <defs></defs>
    <g id="Page-Designs" stroke="none" stroke-width="1" fill="none" fill-rule="evenodd">
        <g id="home" transform="translate(-780.000000, -1007.000000)" fill="#FFFFFF">
            <g id="Hero">
                <g id="Cloud-providers" transform="translate(0.000000, 900.000000)">
                    <g id="logos" transform="translate(256.000000, 106.000000)">
                        <path d="M566.015216,16.7806645 C565.151595,16.7806645 564.287807,16.6809967 563.457243,16.4816611 C562.626678,16.2823256 561.978671,16.0663787 561.546944,15.8172093 C561.280997,15.6677076 561.098272,15.5015947 561.031827,15.352093 C560.965548,15.2025914 560.932159,15.0364784 560.932159,14.8871429 L560.932159,14.0398007 C560.932159,13.6909635 561.06505,13.5248505 561.314219,13.5248505 C561.414053,13.5248505 561.513555,13.5414618 561.613223,13.5746844 C561.713056,13.607907 561.862392,13.6743522 562.028505,13.7407973 C562.593289,13.9899668 563.208073,14.1893023 563.855748,14.3221927 C564.520199,14.4550831 565.16804,14.5215282 565.832492,14.5215282 C566.879003,14.5215282 567.693123,14.338804 568.257741,13.9735216 C568.822525,13.607907 569.121528,13.0763455 569.121528,12.3954485 C569.121528,11.9301661 568.972193,11.5481063 568.673023,11.2326578 C568.37402,10.9168771 567.809402,10.634485 566.995282,10.3687043 L564.586645,9.62119601 C563.374186,9.23930233 562.47701,8.67435216 561.928837,7.92684385 C561.380831,7.19594684 561.098272,6.38199336 561.098272,5.51820598 C561.098272,4.82053156 561.24794,4.20591362 561.546944,3.67451827 C561.845781,3.1427907 562.244618,2.67784053 562.742957,2.31222591 C563.241296,1.93033223 563.805914,1.64777409 564.470365,1.44843854 C565.134817,1.24910299 565.832492,1.16604651 566.563555,1.16604651 C566.928837,1.16604651 567.311063,1.18282392 567.676346,1.23249169 C568.058571,1.28232558 568.407243,1.34893688 568.75608,1.41521595 C569.088306,1.49827243 569.40392,1.5813289 569.702924,1.68116279 C570.001927,1.78066445 570.234485,1.88033223 570.400598,1.98 C570.633322,2.11289037 570.799435,2.24578073 570.898937,2.39528239 C570.998605,2.52817276 571.048605,2.71089701 571.048605,2.94345515 L571.048605,3.72418605 C571.048605,4.07302326 570.915548,4.25591362 570.666379,4.25591362 C570.533488,4.25591362 570.317542,4.18930233 570.03515,4.05641196 C569.088306,3.62451827 568.025349,3.40857143 566.845781,3.40857143 C565.899103,3.40857143 565.151595,3.55807309 564.636478,3.87368771 C564.121694,4.18930233 563.855748,4.67119601 563.855748,5.35209302 C563.855748,5.8172093 564.02186,6.2158804 564.354086,6.53149502 C564.686312,6.84710963 565.30093,7.16289037 566.181329,7.44511628 L568.540133,8.19262458 C569.736146,8.5748505 570.6001,9.10624585 571.114884,9.78730897 C571.63,10.4683721 571.879169,11.249103 571.879169,12.1128904 C571.879169,12.8271761 571.729502,13.4751827 571.44711,14.0398007 C571.148106,14.6045847 570.749435,15.1029236 570.234485,15.5015947 C569.719701,15.9168771 569.105083,16.2160465 568.390797,16.4318272 C567.643289,16.6645515 566.862558,16.7806645 566.015216,16.7806645 Z M544.669701,16.3323256 C544.370698,16.3323256 544.171362,16.2823256 544.038472,16.1660465 C543.905581,16.0663787 543.789302,15.8338206 543.689801,15.518206 L539.786146,2.67784053 C539.686312,2.34561462 539.636478,2.12950166 539.636478,2.0133887 C539.636478,1.74744186 539.769369,1.59810631 540.035316,1.59810631 L541.663056,1.59810631 C541.978671,1.59810631 542.194784,1.64777409 542.310897,1.76421927 C542.443953,1.86372093 542.543455,2.09644518 542.643123,2.41189369 L545.433987,13.4085714 L548.025183,2.41189369 C548.108239,2.07966777 548.207907,1.86372093 548.340963,1.76421927 C548.473688,1.66438538 548.706246,1.59810631 549.005415,1.59810631 L550.334319,1.59810631 C550.649767,1.59810631 550.86588,1.64777409 550.998771,1.76421927 C551.131495,1.86372093 551.24794,2.09644518 551.314219,2.41189369 L553.93897,13.5414618 L556.812724,2.41189369 C556.912226,2.07966777 557.028505,1.86372093 557.14495,1.76421927 C557.277674,1.66438538 557.493621,1.59810631 557.792625,1.59810631 L559.337641,1.59810631 C559.603256,1.59810631 559.752924,1.73083056 559.752924,2.0133887 C559.752924,2.09644518 559.736146,2.17950166 559.719701,2.27900332 C559.702924,2.3786711 559.669867,2.51172757 559.603256,2.69428571 L555.6001,15.5348173 C555.500266,15.8670432 555.383987,16.08299 555.251096,16.1826578 C555.118206,16.2823256 554.902425,16.3487708 554.619867,16.3487708 L553.191462,16.3487708 C552.875681,16.3487708 552.6599,16.299103 552.52701,16.1826578 C552.393953,16.0663787 552.277841,15.8504319 552.211229,15.518206 L549.636478,4.80392027 L547.078339,15.5015947 C546.995282,15.8338206 546.895615,16.0499336 546.76289,16.1660465 C546.629834,16.2823256 546.397276,16.3323256 546.098439,16.3323256 L544.669701,16.3323256 Z M531.330831,14.5381395 C531.879003,14.5381395 532.443787,14.4384718 533.041794,14.2391362 C533.639967,14.0398007 534.171362,13.6743522 534.619867,13.1760133 C534.885814,12.8603987 535.084983,12.5115615 535.184651,12.1128904 C535.284319,11.7142193 535.350764,11.2326578 535.350764,10.6677076 L535.350764,9.97003322 C534.869037,9.85375415 534.354086,9.75408638 533.822525,9.6876412 C533.290963,9.62119601 532.776013,9.58797342 532.261063,9.58797342 C531.148272,9.58797342 530.334153,9.80392027 529.78598,10.2524252 C529.237973,10.7009302 528.972027,11.3321595 528.972027,12.1627243 C528.972027,12.9434551 529.171362,13.5248505 529.586645,13.9235216 C529.985482,14.338804 530.566877,14.5381395 531.330831,14.5381395 Z M538.075017,12.0132226 C538.075017,12.6278405 538.141462,13.1261794 538.257741,13.4916279 C538.390631,13.8570764 538.556744,14.2557475 538.789468,14.6876412 C538.872525,14.8205316 538.905581,14.9534219 538.905581,15.069701 C538.905581,15.235814 538.805914,15.4019269 538.589967,15.5680399 L537.543621,16.2657143 C537.393953,16.3653821 537.244452,16.4153821 537.111561,16.4153821 C536.945449,16.4153821 536.779336,16.3323256 536.613223,16.1826578 C536.380831,15.9334884 536.181329,15.6677076 536.015216,15.4019269 C535.849103,15.1195349 535.68299,14.8040864 535.500266,14.4218605 C534.204585,15.9500997 532.576678,16.7143854 530.616545,16.7143854 C529.221196,16.7143854 528.108239,16.3155482 527.294286,15.518206 C526.480332,14.7210299 526.06505,13.6577409 526.06505,12.3288372 C526.06505,10.9168771 526.563389,9.77069767 527.576844,8.90707641 C528.589967,8.04312292 529.935482,7.61122924 531.646611,7.61122924 C532.211229,7.61122924 532.792625,7.66122924 533.407243,7.74428571 C534.02186,7.82734219 534.65309,7.96006645 535.317542,8.10956811 L535.317542,6.89694352 C535.317542,5.63448505 535.051927,4.75425249 534.536811,4.23913621 C534.005249,3.72418605 533.108239,3.47501661 531.829169,3.47501661 C531.247774,3.47501661 530.649934,3.54146179 530.03515,3.69096346 C529.420532,3.84063123 528.822691,4.02318937 528.241296,4.25591362 C527.975349,4.37202658 527.776013,4.43847176 527.6599,4.47169435 C527.543455,4.50508306 527.460399,4.52152824 527.393953,4.52152824 C527.161561,4.52152824 527.045116,4.35541528 527.045116,4.00674419 L527.045116,3.19262458 C527.045116,2.92700997 527.078505,2.72750831 527.161561,2.61122924 C527.244618,2.49495017 527.393953,2.3786711 527.626512,2.26255814 C528.207907,1.9633887 528.905748,1.71421927 529.719535,1.51504983 C530.533488,1.29893688 531.397442,1.1992691 532.311063,1.1992691 C534.287641,1.1992691 535.732824,1.64777409 536.663056,2.54478405 C537.576678,3.44179402 538.04196,4.80392027 538.04196,6.63116279 L538.04196,12.0132226 L538.075017,12.0132226 Z M569.154817,24.8538538 C563.689701,28.8903987 555.749502,31.0332558 548.922259,31.0332558 C539.354153,31.0332558 530.73289,27.4948837 524.221262,21.6146512 C523.706312,21.1495349 524.171429,20.5181395 524.786047,20.8837542 C531.829236,24.9701329 540.516944,27.4452159 549.503654,27.4452159 C555.566777,27.4452159 562.227907,26.1827575 568.357475,23.5912292 C569.271096,23.1759468 570.051827,24.189402 569.154817,24.8538538 Z M571.430598,22.262392 C570.732924,21.3655482 566.812658,21.8304983 565.035249,22.0464452 C564.503688,22.1130565 564.420631,21.6479402 564.902359,21.2989369 C568.025282,19.1062458 573.158007,19.7376412 573.756179,20.4683721 C574.354186,21.2158804 573.590066,26.3489369 570.666312,28.8072425 C570.217973,29.1893023 569.78608,28.9899668 569.985415,28.4916279 C570.649867,26.8472757 572.128272,23.1429568 571.430598,22.262392 Z" id="aws"></path>
                    </g>
                </g>
            </g>
        </g>
    </g>
</svg>