<?xml version="1.0" encoding="UTF-8"?>
<svg width="100px" height="30px" viewBox="0 0 100 30" version="1.1" xmlns="http://www.w3.org/2000/svg" xmlns:xlink="http://www.w3.org/1999/xlink">
    <!-- Generator: Sketch 50.2 (55047) - http://www.bohemiancoding.com/sketch -->
    <title>Azure</title>
    <desc>Created with Sketch.</desc>
    <defs></defs>
    <g id="Page-Designs" stroke="none" stroke-width="1" fill="none" fill-rule="evenodd">
        <g id="home" transform="translate(-568.000000, -1008.000000)" fill="#FFFFFF">
            <g id="Hero">
                <g id="Cloud-providers" transform="translate(0.000000, 900.000000)">
                    <g id="logos" transform="translate(256.000000, 106.000000)">
                        <path d="M329.594438,17.458325 L335.097438,6.375075 L349.203938,31.020825 L321.300938,30.72895 L339.282938,28.68745 L329.594438,17.458325 Z M321.378562,12.5730375 L334.012312,2.0000375 L319.983437,27.5936625 L312.000062,28.3959125 L321.378562,12.5730375 Z M380.947675,17.4267625 L382.738675,17.4267625 L382.738675,23.4821375 C382.738675,25.7141375 383.6468,26.8298875 385.463425,26.8298875 C386.3423,26.8298875 387.063675,26.5267625 387.627675,25.9205125 C388.198925,25.3075125 388.484425,24.5085125 388.484425,23.5233875 L388.484425,17.4267625 L390.286425,17.4267625 L390.286425,28.0078875 L388.484425,28.0078875 L388.484425,26.3338875 L388.440675,26.3338875 C387.69355,27.6151375 386.536425,28.2558875 384.96905,28.2558875 C382.2883,28.2558875 380.947675,26.7541375 380.947675,23.7506375 L380.947675,17.4267625 Z M369.558175,17.4267625 L378.23755,17.4267625 L378.23755,17.9125125 L371.579675,26.5612625 L378.17155,26.5612625 L378.17155,28.0078875 L368.931925,28.0078875 L368.931925,27.4811375 L375.589675,18.8733875 L369.558175,18.8733875 L369.558175,17.4267625 Z M399.3248,17.2408875 C399.79355,17.2408875 400.152675,17.2888875 400.401675,17.3852625 L400.401675,19.1420125 C400.0868,18.9147625 399.63255,18.8010125 399.0393,18.8010125 C398.2703,18.8010125 397.625675,19.1421375 397.105675,19.8241375 C396.59305,20.5061375 396.33655,21.4361375 396.33655,22.6141375 L396.33655,28.0078875 L394.534925,28.0078875 L394.534925,17.4267625 L396.33655,17.4267625 L396.33655,19.6071375 L396.380675,19.6071375 C396.636925,18.8630125 397.028675,18.2845125 397.55605,17.8712625 C398.083425,17.4511375 398.672925,17.2408875 399.3248,17.2408875 Z M407.37455,17.1788875 C408.8468,17.1788875 409.9858,17.6267625 410.79155,18.5222625 C411.597175,19.4177625 412.00005,20.6610125 412.00005,22.2523875 L412.00005,23.1408875 L404.0568,23.1408875 C404.08605,24.3188875 404.42305,25.2281375 405.067675,25.8687625 C405.712175,26.5093875 406.598425,26.8298875 407.7263,26.8298875 C408.993425,26.8298875 410.1578,26.4373875 411.2198,25.6520125 L411.2198,27.2433875 C410.23105,27.9185125 408.92355,28.2558875 407.29755,28.2558875 C405.7083,28.2558875 404.45955,27.7770125 403.551425,26.8195125 C402.643175,25.8551375 402.18905,24.5017625 402.18905,22.7587625 C402.18905,21.1125125 402.6833,19.7723875 403.672175,18.7390125 C404.668175,17.6987625 405.9023,17.1788875 407.37455,17.1788875 Z M407.341675,18.6048875 C406.49205,18.6048875 405.770675,18.8905125 405.177425,19.4622625 C404.58405,20.0341375 404.2178,20.7815125 404.078675,21.7046375 L410.1543,21.7046375 C410.146925,20.7263875 409.894425,19.9653875 409.3963,19.4211375 C408.905675,18.8770125 408.22055,18.6048875 407.341675,18.6048875 Z M359.75055,13.1902625 L361.66205,13.1902625 L367.726675,28.0078875 L365.6833,28.0078875 L364.0133,23.8538875 L357.333675,23.8538875 L355.762425,28.0078875 L353.7078,28.0078875 L359.75055,13.1902625 Z M360.651425,14.9880125 C360.578175,15.4082625 360.49405,15.7391375 360.3988,15.9801375 L357.94855,22.2937625 L363.408925,22.2937625 L360.936925,15.9801375 C360.8563,15.7735125 360.7758,15.4427625 360.695175,14.9880125 L360.651425,14.9880125 Z" id="Azure"></path>
                    </g>
                </g>
            </g>
        </g>
    </g>
</svg>