<?xml version="1.0" encoding="UTF-8"?>
<svg width="200px" height="25px" viewBox="0 0 200 25" version="1.1" xmlns="http://www.w3.org/2000/svg" xmlns:xlink="http://www.w3.org/1999/xlink">
    <!-- Generator: Sketch 50.2 (55047) - http://www.bohemiancoding.com/sketch -->
    <title>GCP</title>
    <desc>Created with Sketch.</desc>
    <defs></defs>
    <g id="Page-Designs" stroke="none" stroke-width="1" fill="none" fill-rule="evenodd">
        <g id="home" transform="translate(-256.000000, -1010.000000)" fill="#FFFFFF">
            <g id="Hero">
                <g id="Cloud-providers" transform="translate(0.000000, 900.000000)">
                    <g id="logos" transform="translate(256.000000, 106.000000)">
                        <path d="M7.73882762,28.8807551 C7.23231992,28.8807551 6.76098361,28.6078291 6.50882265,28.1683855 L0.187014406,17.1458321 C-0.0623646299,16.7106607 -0.0623646299,16.1699752 0.187014406,15.7350025 L2.13584699,12.3378838 L9.27673125,24.7485147 L17.6259613,24.7485147 L15.248614,28.8807551 L7.73882762,28.8807551 Z M16.4654545,28.8807551 L18.9948137,24.4841331 L23.6250174,16.4403179 L19.4497566,9.18696473 L24.1779235,9.18696473 L27.9341083,15.7350025 C28.1834873,16.1698758 28.1834873,16.710462 27.9342077,17.1457327 L21.6123994,28.1683855 C21.3602385,28.6077298 20.8890015,28.8807551 20.3825931,28.8807551 L16.4654545,28.8807551 Z M2.74331843,11.2788077 L6.50884252,4.71238947 C6.76090412,4.27294585 7.23224044,4.00001987 7.73884749,4.00001987 L20.3825633,4.00001987 C20.889071,4.00001987 21.360308,4.27294585 21.6123696,4.71238947 L23.573224,8.13235966 L9.27675112,8.13235966 L5.10486836,15.3829309 L2.74331843,11.2788077 Z M9.91179334,23.6532141 L5.76007948,16.4401987 L9.91020368,9.22758073 L18.2092598,9.22758073 L22.3597814,16.4402981 L18.2092598,23.6532141 L9.91179334,23.6532141 Z M14.0606259,12.8749727 C12.0948038,12.8749727 10.4954993,14.4743766 10.4954993,16.4402981 C10.4954993,18.4062196 12.0948038,20.0056234 14.0606259,20.0056234 C16.0265474,20.0056234 17.6259513,18.4062196 17.6259513,16.4402981 C17.6259513,14.4743766 16.0265474,12.8749727 14.0606259,12.8749727 Z M93.8192946,16.7798609 C93.8192946,13.167839 96.5494486,10.4377844 100.127193,10.4377844 C101.95849,10.4377844 103.501759,11.1668455 104.586806,12.4217884 L103.501759,13.4731545 C102.653969,12.4217884 101.517655,11.9301838 100.127193,11.9301838 C97.5668356,11.9301838 95.4131346,13.7950621 95.4131346,16.7798609 C95.4131346,19.7640636 97.5668356,21.629538 100.127193,21.629538 C101.65387,21.629538 102.942295,20.9169697 103.858241,19.866001 L104.942891,20.9511475 C103.874734,22.2225832 102.161967,23.1214406 100.127193,23.1214406 C96.5494486,23.1214406 93.8192946,20.3917834 93.8192946,16.7798609 Z M106.163438,22.8502732 L106.163438,10.7088922 L107.723597,10.7088922 L107.723597,22.8502732 L106.163438,22.8502732 Z M117.439692,18.6954893 C117.439692,21.2222653 115.659165,23.1214208 113.166567,23.1214208 C110.67377,23.1214208 108.893244,21.2222653 108.893244,18.6954893 C108.893244,16.1693095 110.67377,14.270154 113.166567,14.270154 C115.659165,14.270154 117.439692,16.1693095 117.439692,18.6954893 Z M115.879533,18.6954893 C115.879533,16.7964332 114.55693,15.6941977 113.166567,15.6941977 C111.776006,15.6941977 110.453403,16.7964332 110.453403,18.6954893 C110.453403,20.5951416 111.776006,21.6972777 113.166567,21.6972777 C114.55693,21.6972777 115.879533,20.5951416 115.879533,18.6954893 Z M124.493353,22.8502732 L124.493353,21.6973671 L124.425494,21.6973671 C123.968068,22.4607054 122.933194,23.1214108 121.797278,23.1214108 C119.660765,23.1214108 118.626289,21.6802782 118.626289,19.6285147 L118.626289,14.5412817 L120.186448,14.5412817 L120.186448,19.3739692 C120.186448,21.1037258 121.051227,21.6973671 122.238311,21.6973671 C123.594595,21.6973671 124.425494,20.3917536 124.425494,19.1199205 L124.425494,14.5412817 L125.985753,14.5412817 L125.985753,22.8502732 L124.493353,22.8502732 Z M127.24005,18.6954893 C127.24005,16.1521212 129.087938,14.270154 131.190969,14.270154 C132.513671,14.270154 133.548048,14.9314555 134.022563,15.6941977 L134.090919,15.6941977 L134.022563,14.5412916 L134.022563,10.7089021 L135.583318,10.7089021 L135.583318,22.8501838 L134.090919,22.8501838 L134.090919,21.6972777 L134.022563,21.6972777 C133.548048,22.460616 132.513671,23.1214208 131.190969,23.1214208 C129.087938,23.1214208 127.24005,21.2393542 127.24005,18.6954893 Z M134.090919,18.6954893 C134.090919,16.7964332 132.835976,15.6941977 131.445514,15.6941977 C130.054555,15.6941977 128.800209,16.8305117 128.800209,18.6954893 C128.800209,20.5609637 130.054555,21.6972777 131.445514,21.6972777 C132.835976,21.6972777 134.090919,20.5951416 134.090919,18.6954893 Z M139.837904,22.8503229 L139.837904,10.7088425 L143.975609,10.7088425 C145.99379,10.7088425 147.774317,12.2012419 147.774317,14.3208644 C147.774317,16.4403875 145.99379,17.9327869 143.975609,17.9327869 L141.398559,17.9327869 L141.398559,22.8503229 L139.837904,22.8503229 Z M144.009786,16.4403875 C145.400149,16.4403875 146.17998,15.2874814 146.17998,14.3208644 C146.17998,13.354148 145.400149,12.2012419 144.009786,12.2012419 L141.398559,12.2012419 L141.398559,16.4403875 L144.009786,16.4403875 Z M148.876006,22.8502732 L148.876006,10.7088922 L150.435668,10.7088922 L150.435668,22.8502732 L148.876006,22.8502732 Z M151.7754,20.3406061 C151.7754,18.4584401 153.471177,17.4411525 155.421003,17.4411525 C156.540229,17.4411525 157.354138,17.7629608 157.676642,17.9499454 L157.676642,17.7123895 C157.676642,16.4574466 156.676344,15.6941083 155.505753,15.6941083 C154.641172,15.6941083 153.810174,16.1184501 153.521947,16.8983805 L152.097804,16.2877496 C152.385534,15.5244113 153.38623,14.2700646 155.471674,14.2700646 C157.506945,14.2700646 159.168544,15.4908296 159.168544,17.8308197 L159.168544,22.8502931 L157.676642,22.8502931 L157.676642,21.697387 L157.608783,21.697387 C157.150859,22.3923696 156.302772,23.1214307 154.878629,23.1214307 C153.182951,23.1214307 151.7754,22.070462 151.7754,20.3406061 Z M157.676642,19.2725484 C157.676642,19.2725484 157.01534,18.7296771 155.692141,18.7296771 C154.047531,18.7296771 153.403318,19.611545 153.403318,20.3740884 C153.403318,21.2559563 154.318768,21.697387 155.132777,21.697387 C156.371128,21.697387 157.676642,20.6287332 157.676642,19.2725484 Z M161.423626,20.3234774 L161.423626,15.9654049 L159.965405,15.9654049 L159.965405,14.5413612 L161.423626,14.5413612 L161.423626,11.9972976 L162.983785,11.9972976 L162.983785,14.5413612 L165.018559,14.5413612 L165.018559,15.9654049 L162.983785,15.9654049 L162.983785,20.2049478 C162.983785,21.1374863 163.373453,21.561232 164.10311,21.561232 C164.39074,21.561232 164.594615,21.5276503 164.815181,21.4256135 L165.357357,22.7655042 C165.00147,22.9181123 164.628793,22.9858718 164.10311,22.9858718 C162.356066,22.9858718 161.423626,22.0192548 161.423626,20.3234774 Z M171.563428,10.8615499 L171.020556,12.2012419 C170.817278,12.0993045 170.596811,12.0657228 170.308584,12.0657228 C169.528753,12.0657228 168.918122,12.5231495 168.918122,13.4897665 L168.918122,14.541232 L171.088912,14.541232 L171.088912,15.9652757 L168.918122,15.9652757 L168.918122,22.8503229 L167.357963,22.8503229 L167.357963,15.9652757 L165.798301,15.9652757 L165.798301,14.541232 L167.357963,14.541232 L167.357963,13.4389965 C167.357963,11.7433184 168.562136,10.641083 170.308584,10.641083 C170.834367,10.641083 171.207342,10.7089419 171.563428,10.8615499 Z M180.058698,18.6954893 C180.058698,21.2222653 178.278172,23.1214208 175.785574,23.1214208 C173.292777,23.1214208 171.51225,21.2222653 171.51225,18.6954893 C171.51225,16.1693095 173.292777,14.270154 175.785574,14.270154 C178.278172,14.270154 180.058698,16.1693095 180.058698,18.6954893 Z M178.498639,18.6954893 C178.498639,16.7964332 177.175936,15.6941977 175.785574,15.6941977 C174.395012,15.6941977 173.072409,16.7964332 173.072409,18.6954893 C173.072409,20.5951416 174.395012,21.6972777 175.785574,21.6972777 C177.175936,21.6972777 178.498639,20.5951416 178.498639,18.6954893 Z M181.313135,22.8502732 L181.313135,14.5412817 L182.805534,14.5412817 L182.805534,15.8981619 L182.873194,15.8981619 C183.212191,14.9480378 184.416364,14.3379036 185.281043,14.3379036 C185.789737,14.3379036 186.128733,14.4056632 186.451038,14.5412817 L185.857496,15.9995032 C185.637129,15.9146547 185.365991,15.881073 185.026398,15.881073 C183.95844,15.881073 182.873194,16.7798311 182.873194,18.3058122 L182.873194,22.8502732 L181.313135,22.8502732 Z M187.298649,14.5412419 L188.790651,14.5412419 L188.790651,15.694148 L188.858808,15.694148 C189.333323,14.8973274 190.435559,14.2701043 191.419265,14.2701043 C192.75846,14.2701043 193.623636,14.8802385 194.047481,15.863845 C194.641023,14.9314059 195.65841,14.2701043 196.947432,14.2701043 C198.982106,14.2701043 199.915042,15.711237 199.915042,17.7630005 L199.915042,22.8503328 L198.354386,22.8503328 L198.354386,18.000457 C198.354386,16.2707004 197.693085,15.694148 196.506597,15.694148 C195.234565,15.694148 194.386478,16.9832688 194.386478,18.2546051 L194.386478,22.8503328 L192.826816,22.8503328 L192.826816,18.000457 C192.826816,16.2707004 192.165415,15.694148 190.978331,15.694148 C189.706498,15.694148 188.858808,16.9832688 188.858808,18.2546051 L188.858808,22.8503328 L187.298649,22.8503328 L187.298649,14.5412419 Z M35.013542,16.1690909 C35.013542,12.3368008 38.2353999,9.21668157 42.0677894,9.21668157 C44.1875112,9.21668157 45.6967014,10.0475807 46.8328167,11.1328266 L45.4931247,12.4724193 C44.6792151,11.709379 43.577079,11.1158371 42.0677894,11.1158371 C39.2698758,11.1158371 37.0823944,13.3712767 37.0823944,16.1690909 C37.0823944,18.9671038 39.2698758,21.2222454 42.0677894,21.2222454 C43.8821957,21.2222454 44.9165723,20.4932837 45.5779732,19.8317834 C46.1206458,19.2893095 46.4766319,18.5091803 46.6124491,17.440924 L42.0677894,17.440924 L42.0677894,15.5418679 L48.4606359,15.5418679 C48.5284948,15.8808644 48.5623746,16.2878192 48.5623746,16.7287531 C48.5623746,18.1532936 48.1724093,19.9167312 46.9174665,21.1716741 C45.6967014,22.4432091 44.1365425,23.1215002 42.0677894,23.1215002 C38.2353999,23.1215002 35.013542,20.0014804 35.013542,16.1690909 Z M53.7289021,14.1680775 C56.2047094,14.1680775 58.2224938,16.0505415 58.2224938,18.6447789 C58.2224938,21.2222255 56.2047094,23.1214804 53.7289021,23.1214804 C51.2531942,23.1214804 49.2352111,21.2222255 49.2352111,18.6447789 C49.2352111,16.0505415 51.2531942,14.1680775 53.7289021,14.1680775 Z M53.7289021,21.3580427 C55.085385,21.3580427 56.2554794,20.238917 56.2554794,18.6447789 C56.2554794,17.03385 55.085385,15.9317139 53.7289021,15.9317139 C52.3723199,15.9317139 51.2022255,17.03385 51.2022255,18.6447789 C51.2022255,20.238917 52.3723199,21.3580427 53.7289021,21.3580427 Z M63.5317834,14.1680775 C66.007392,14.1680775 68.0254744,16.0505415 68.0254744,18.6447789 C68.0254744,21.2222255 66.007392,23.1214804 63.5317834,23.1214804 C61.0560755,23.1214804 59.0380924,21.2222255 59.0380924,18.6447789 C59.0380924,16.0505415 61.0560755,14.1680775 63.5317834,14.1680775 Z M63.5317834,21.3580427 C64.8882663,21.3580427 66.0583607,20.238917 66.0583607,18.6447789 C66.0583607,17.03385 64.8882663,15.9317139 63.5317834,15.9317139 C62.1753005,15.9317139 61.0051068,17.03385 61.0051068,18.6447789 C61.0051068,20.238917 62.1753005,21.3580427 63.5317834,21.3580427 Z M75.5642226,14.4394138 L77.4294983,14.4394138 L77.4294983,22.4771684 C77.4294983,25.7837755 75.4795728,27.140457 73.1733631,27.140457 C71.002772,27.140457 69.6970591,25.6822355 69.2052558,24.4950522 L70.9180229,23.78308 C71.2232389,24.5121411 71.9694883,25.3768207 73.1733631,25.3768207 C74.6485743,25.3768207 75.5642226,24.4611724 75.5642226,22.7486041 L75.5642226,22.1040934 L75.4965623,22.1040934 C75.0556284,22.6466667 74.2077397,23.1214804 73.1394834,23.1214804 C70.9010333,23.1214804 68.8491704,21.1716542 68.8491704,18.6618679 C68.8491704,16.1351913 70.9010333,14.1680775 73.1394834,14.1680775 C74.2077397,14.1680775 75.0556284,14.6429906 75.4965623,15.1686736 L75.5642226,15.1686736 L75.5642226,14.4394138 Z M73.3089816,21.3580427 C74.6485743,21.3580427 75.7000397,20.2219275 75.7000397,18.6618679 C75.7000397,17.0848187 74.6485743,15.9317139 73.3089816,15.9317139 C71.9524988,15.9317139 70.8162842,17.0848187 70.8162842,18.6618679 C70.8162842,20.2219275 71.9524988,21.3580427 73.3089816,21.3580427 Z M78.7860904,22.8502732 L78.7860904,9.69160457 L80.7532042,9.69160457 L80.7532042,22.8502732 L78.7860904,22.8502732 Z M86.1455936,21.3580626 C87.1460904,21.3580626 87.8413711,20.8663587 88.3500646,20.1201093 L89.8762444,21.1375956 C89.3845405,21.8668554 88.1974565,23.1215002 86.1455936,23.1215002 C83.6019275,23.1215002 81.7028713,21.1545852 81.7028713,18.6446995 C81.7028713,15.9827024 83.618917,14.1680974 85.9251267,14.1680974 C88.2483259,14.1680974 89.3845405,16.0166816 89.7575161,17.0169796 L89.9609935,17.5257725 L83.9751018,20.0015797 C84.4330253,20.9002385 85.1451962,21.3580626 86.1455936,21.3580626 Z M85.9929856,15.8977546 C84.9925882,15.8977546 83.6019275,16.7795231 83.6529955,18.5092797 L87.6547839,16.847382 C87.4344163,16.2878192 86.7731148,15.8977546 85.9929856,15.8977546 Z" id="GCP"></path>
                    </g>
                </g>
            </g>
        </g>
    </g>
</svg>