<?xml version="1.0" encoding="UTF-8"?>
<svg width="140px" height="33px" viewBox="0 0 140 33" version="1.1" xmlns="http://www.w3.org/2000/svg" xmlns:xlink="http://www.w3.org/1999/xlink">
    <!-- Generator: Sketch 50.2 (55047) - http://www.bohemiancoding.com/sketch -->
    <title>IBM</title>
    <desc>Created with Sketch.</desc>
    <defs></defs>
    <g id="Page-Designs" stroke="none" stroke-width="1" fill="none" fill-rule="evenodd">
        <g id="home" transform="translate(-942.000000, -1006.000000)" fill="#FFFFFF" fill-rule="nonzero">
            <g id="Hero">
                <g id="Cloud-providers" transform="translate(0.000000, 900.000000)">
                    <g id="logos" transform="translate(256.000000, 106.000000)">
                        <path d="M732.143065,27.1154425 L732.143065,25.7035737 L734.119662,25.7035737 L734.119662,14.4492905 L732.143065,14.4492905 L732.143065,13.0376115 L737.790353,13.0376115 L737.790353,14.4492905 L735.813754,14.4492905 L735.813754,25.7035737 L737.790353,25.7035737 L737.790353,27.1154425 L732.143065,27.1154425 Z M740.87607,13.0376212 L746.664563,13.0376212 C748.984008,13.0376212 750.415928,14.4695397 750.415928,16.6679249 C750.415928,18.7654885 749.064685,19.511714 748.136869,19.6530142 L748.136869,19.7738835 C749.145359,19.834414 750.899982,20.7017003 750.899982,23.0413858 C750.899982,25.3606402 749.347003,27.1154522 747.269678,27.1154522 L740.87607,27.1154522 L740.87607,13.0376212 Z M742.570258,19.1284796 L746.462922,19.1284796 C747.794021,19.1284796 748.600775,18.4225453 748.600775,17.1722182 L748.600775,16.4863335 C748.600775,15.2360064 747.794015,14.5300721 746.462922,14.5300721 L742.570258,14.5300721 L742.570258,19.1284796 Z M742.570256,25.6230014 L746.745237,25.6230014 C748.197397,25.6230014 749.084827,24.8565366 749.084827,23.4446679 L749.084827,22.7589729 C749.084827,21.3471042 748.197397,20.5806394 746.745237,20.5806394 L742.570256,20.5806394 L742.570256,25.6230014 Z M764.998148,15.2560542 L764.897328,15.2560542 L763.70734,17.6157894 L760.339114,23.7471285 L756.991126,17.6157816 L755.801145,15.2762858 L755.700326,15.2762858 L755.700326,27.1154425 L754.046429,27.1154425 L754.046429,13.0376212 L756.265054,13.0376212 L760.298829,20.6211201 L760.379505,20.6211201 L764.433426,13.0376212 L766.652051,13.0376212 L766.652051,27.1154425 L764.998154,27.1154425 L764.998148,15.2560542 Z M773.488937,20.1773573 C773.488937,15.4174061 775.929444,12.7954994 779.721088,12.7954994 C782.302705,12.7954994 783.956696,13.8443771 784.985332,16.1032927 L782.343184,17.4746807 C781.980001,16.3049338 781.233776,15.5182277 779.721086,15.5182277 C777.926174,15.5182277 776.736188,16.7284553 776.736188,18.9470799 L776.736188,21.2059936 C776.736188,23.4244265 777.926176,24.6346561 779.721088,24.6346561 C781.233778,24.6346561 782.101064,23.6867897 782.524586,22.5370925 L785.025619,23.9892522 C783.976742,26.127105 782.302701,27.3573844 779.721084,27.3573844 C775.92944,27.3573746 773.488935,24.9371089 773.488935,20.1773475 L773.488937,20.1773573 Z M789.966792,27.1154522 C787.929753,27.1154522 787.001942,26.0868159 787.001942,24.2111327 L787.001942,12.1903768 L789.987032,12.1903768 L789.987032,24.7959983 L791.318128,24.7959983 L791.318128,27.1154522 L789.966792,27.1154522 Z M792.447588,21.8109168 C792.447588,18.4024955 794.30303,16.2846905 797.408985,16.2846905 C800.515135,16.2846905 802.370577,18.4024936 802.370577,21.8109168 C802.370577,25.2195296 800.515135,27.3573824 797.408985,27.3573824 C794.303028,27.3573746 792.447586,25.2195198 792.447586,21.8109089 L792.447588,21.8109168 Z M799.264622,22.9000835 L799.264622,20.7419816 C799.264622,19.4108827 798.578927,18.6444179 797.408991,18.6444179 C796.239244,18.6444179 795.553549,19.4108827 795.553549,20.7419816 L795.553549,22.9000757 C795.553549,24.2311746 796.239244,24.9976394 797.408991,24.9976394 C798.578925,24.9976394 799.26462,24.2311746 799.26462,22.9000757 L799.264622,22.9000835 Z M810.740587,25.3405866 L810.639767,25.3405866 C810.276774,26.409514 809.409488,27.3573785 807.674917,27.3573785 C805.516823,27.3573785 804.367124,25.8446883 804.367124,23.1824925 L804.367124,16.5268045 L807.352213,16.5268045 L807.352213,22.9203073 C807.352213,24.2111151 807.775733,24.9370992 808.864903,24.9370992 C809.792528,24.9370992 810.740585,24.4127561 810.740585,23.4043592 L810.740585,16.5268045 L813.725484,16.5268045 L813.725484,27.1154425 L810.740587,27.1154425 L810.740587,25.3405866 Z M713.319607,13.4723207 C713.254878,13.3849058 713.188778,13.2983048 713.121525,13.2128246 C712.847088,12.8644381 712.5523,12.5325757 712.238704,12.2189732 C707.908587,7.89105731 700.890129,7.89198568 696.561157,12.2210469 C692.232186,16.5501082 692.231403,23.5685667 696.559408,27.8985939 L695.576164,28.8810615 C692.650774,25.9535888 691.483291,21.9345986 692.073484,18.1359037 C689.382528,19.011341 687.495771,21.5251167 687.477305,24.4274366 C687.464076,26.1960414 688.15399,27.8974587 689.395262,29.1573713 C690.636535,30.4172839 692.327481,31.1324786 694.096087,31.1456103 L713.225861,31.1456103 C713.246155,31.1457413 713.267231,31.1458704 713.287525,31.1458704 C716.498921,31.1473739 719.411181,29.2610005 720.722906,26.3297136 C722.03463,23.3984268 721.500728,19.9699263 719.359783,17.5763059 L720.395849,16.6495176 C722.901619,19.4509093 723.52721,23.4632661 721.993209,26.8945226 C720.459208,30.325779 717.052054,32.5352296 713.293506,32.5360528 C713.269182,32.5360528 713.245115,32.5359218 713.220658,32.5357927 L694.090884,32.5357927 C691.952692,32.5212158 689.907943,31.6574949 688.406801,30.1347838 C686.90566,28.6120728 686.071196,26.5552103 686.087123,24.4170285 C686.11125,20.6392641 688.754751,17.4062839 692.410684,16.6054855 C692.975104,14.6405153 694.031305,12.7869747 695.579254,11.2390086 C700.450581,6.36762765 708.348166,6.36615705 713.221307,11.2357235 C713.573896,11.5883084 713.905345,11.9614171 714.213922,12.3530994 C714.428056,12.6253858 714.632043,12.9078846 714.820028,13.1927905 L714.313059,13.5273968 C716.608158,13.7752694 718.789299,14.8535386 720.395851,16.6495156 L719.359785,17.5763039 C717.116708,15.0686889 713.562218,14.1991013 710.414817,15.3879637 C707.267416,16.576826 705.175485,19.5792261 705.150418,22.9435832 L703.760236,22.9331771 C703.789665,18.9943954 706.238807,15.4794083 709.923596,14.087577 C711.030765,13.6693735 712.18096,13.4687386 713.319607,13.4723207 Z M823.003075,25.3405866 L822.902256,25.3405866 C822.599795,26.4900941 821.430046,27.3573785 820.058466,27.3573785 C817.376029,27.3573785 815.9844,25.401117 815.9844,21.8109128 C815.9844,18.2209003 817.376029,16.2846866 820.058466,16.2846866 C821.430046,16.2846866 822.599793,17.1317257 822.902256,18.3016701 L823.003077,18.3016701 L823.003077,12.1903768 L825.988166,12.1903768 L825.988166,27.1154425 L823.003081,27.1154425 L823.003075,25.3405866 Z M823.003075,23.3841335 L823.003075,20.2579277 C823.003075,19.2898218 822.17627,18.7049483 821.046814,18.7049483 C819.917358,18.7049483 819.090361,19.5722346 819.090361,20.9033316 L819.090361,22.7387237 C819.090361,24.0698226 819.917356,24.937107 821.046814,24.937107 C822.176272,24.937107 823.003081,24.3522355 823.003081,23.3841277 Z M690.975528,13.0042246 C690.853729,13.0042171 690.73409,12.9720638 690.628697,12.9110131 L687.345251,11.0152587 C687.040523,10.8490662 686.897098,10.4896186 687.003708,10.1592955 C687.073338,9.96529635 687.225408,9.81216004 687.418916,9.74117587 C687.612424,9.6701917 687.827447,9.68866813 688.006008,9.79162346 L691.28947,11.6873838 C691.625049,11.8721289 691.757719,12.2869419 691.591629,12.6321355 C691.471494,12.8611404 691.234131,13.0044935 690.975528,13.0042246 Z M696.649958,7.33115866 C696.40137,7.33144027 696.171574,7.19888106 696.047364,6.98354804 L694.151676,3.70008659 C693.970851,3.40376769 694.026374,3.02072612 694.283892,2.78794553 C694.441177,2.65470998 694.649455,2.59809727 694.852545,2.63337813 C695.055635,2.66865899 695.232617,2.79219916 695.335751,2.97067486 L697.229971,6.25159637 C697.423402,6.56970915 697.344059,6.98266375 697.04651,7.20644134 C696.930176,7.28755751 696.791781,7.33108323 696.649958,7.33115866 Z M703.703774,4.51403212 L703.703774,0.773853911 C703.694878,0.390673362 703.985568,0.0666733026 704.367466,0.0341103352 C704.557062,0.0255339016 704.74192,0.094857692 704.879124,0.225988107 C705.016328,0.357118521 705.093946,0.538650053 705.093957,0.728439944 L705.093957,4.55944413 C705.093946,4.74923402 705.016328,4.93076556 704.879124,5.06189597 C704.74192,5.19302639 704.557062,5.26235018 704.367466,5.25377374 C703.985569,5.22121082 703.694879,4.89721193 703.703774,4.51403212 Z M712.147904,7.33115866 C712.006259,7.33112963 711.868023,7.28770053 711.751811,7.20671899 C711.454002,6.98274265 711.374596,6.56942183 711.568208,6.2510352 L713.462105,2.97067291 C713.565206,2.79220653 713.742152,2.66866047 713.945214,2.63335999 C714.148276,2.59805952 714.356536,2.6546409 714.513818,2.7878419 C714.771433,3.02062571 714.827006,3.40375258 714.646147,3.70013743 L712.75049,6.98354609 C712.626259,7.19885403 712.396481,7.3314051 712.147904,7.33115866 Z M717.822334,13.0042246 C717.563778,13.0045214 717.326445,12.8612163 717.206313,12.6322626 C717.04011,12.2870795 717.172734,11.872187 717.508343,11.6874131 L720.762561,9.80853296 C721.056357,9.63030028 721.435254,9.68524866 721.666316,9.93959721 C721.8013,10.0966098 721.85933,10.3055895 721.824629,10.5097204 C721.789928,10.7138514 721.666103,10.891917 721.486819,10.9955061 L718.169165,12.9110112 C718.063772,12.9720626 717.944133,13.0042165 717.822334,13.0042246 Z" id="IBM"></path>
                    </g>
                </g>
            </g>
        </g>
    </g>
</svg>