<?xml version="1.0" encoding="UTF-8"?>
<svg width="150px" height="26px" viewBox="0 0 150 26" version="1.1" xmlns="http://www.w3.org/2000/svg" xmlns:xlink="http://www.w3.org/1999/xlink">
    <!-- Generator: Sketch 50.2 (55047) - http://www.bohemiancoding.com/sketch -->
    <title>kubernetes</title>
    <desc>Created with Sketch.</desc>
    <defs></defs>
    <g id="Page-Designs" stroke="none" stroke-width="1" fill="none" fill-rule="evenodd">
        <g id="home" transform="translate(-1194.000000, -1010.000000)" fill="#FFFFFF">
            <g id="Hero">
                <g id="Cloud-providers" transform="translate(0.000000, 900.000000)">
                    <g id="logos" transform="translate(256.000000, 106.000000)">
                        <path d="M964.167856,19.5680287 C964.227885,20.0770208 964.108123,20.5861611 963.808715,21.0051828 L957.491077,28.8200049 C957.161729,29.2691156 956.652737,29.5084931 956.113804,29.4487599 L946.053429,29.4487599 C945.544437,29.4188192 945.035445,29.1791453 944.676156,28.8200049 L938.358518,21.0051828 C938.059111,20.5861611 937.939348,20.0770208 938.02917,19.5680287 L940.274723,9.71738636 C940.394486,9.20839427 940.723982,8.81916502 941.172945,8.60958004 L950.305158,4.20814723 C950.544684,4.14826581 950.81415,4.14826581 951.053676,4.14826581 C951.293202,4.14826581 951.562668,4.17820652 951.802194,4.29796937 L960.934259,8.66946146 C961.38337,8.90898715 961.742658,9.2982164 961.892362,9.77726779 L964.167856,19.5680287 Z M960.425267,20.2267243 C960.694733,20.2267243 960.934259,20.04708 961.024081,19.8075543 C960.99414,19.4782065 960.754615,19.2386808 960.485148,19.1787994 C960.455208,19.1787994 960.425267,19.1787994 960.425267,19.1490069 C960.425267,19.118918 960.365385,19.118918 960.305504,19.118918 C960.185741,19.0889773 960.065978,19.0889773 959.946215,19.0889773 C959.886334,19.0889773 959.826453,19.0889773 959.766571,19.0590366 L959.73663,19.0590366 C959.407283,19.0290958 959.047994,18.9693626 958.718646,18.8793923 C958.628824,18.8494516 958.539002,18.7597777 958.509061,18.6698073 L958.269536,18.6099259 C958.389298,17.7416453 958.329417,16.8434239 958.149773,15.9749951 C957.940188,15.1068626 957.580899,14.2683745 957.101848,13.5198567 L957.281492,13.3402125 L957.281492,13.3102717 C957.281492,13.2204496 957.311433,13.1006868 957.371314,13.0409536 C957.640781,12.8012796 957.910247,12.6216354 958.209654,12.4419911 C958.269536,12.4120504 958.329417,12.3821097 958.389298,12.352169 C958.509061,12.2922875 958.598883,12.2324061 958.718646,12.1725247 C958.748587,12.142584 958.778528,12.142584 958.808468,12.1126433 C958.838409,12.0827026 958.808468,12.0827026 958.808468,12.0527619 C959.077935,11.8431769 959.137816,11.4838883 958.928231,11.2144219 C958.838409,11.0946591 958.658765,11.004837 958.509061,11.004837 C958.359358,11.004837 958.209654,11.0647184 958.089891,11.1545405 L958.059951,11.1844812 C958.03001,11.2144219 958.000069,11.2443626 957.970128,11.2443626 C957.880306,11.3341848 957.790484,11.4240069 957.730603,11.5138291 C957.700662,11.5737105 957.640781,11.6036512 957.61084,11.6335919 C957.401255,11.8731176 957.131789,12.1126433 956.862322,12.2922875 C956.802441,12.3222283 956.742559,12.352169 956.682678,12.352169 C956.652737,12.352169 956.592856,12.352169 956.562767,12.3222283 L956.532974,12.3222283 L956.293449,12.4719318 C956.053923,12.2324061 955.784308,11.9928804 955.544783,11.7533547 C954.437125,10.8850741 953.059704,10.3461413 951.65249,10.1964377 L951.622549,9.95691206 L951.622549,9.98685277 C951.532727,9.92697134 951.502787,9.83714921 951.472846,9.74732708 C951.472846,9.41797925 951.472846,9.0884832 951.532727,8.72934289 L951.532727,8.69940217 C951.532727,8.63952075 951.562668,8.57963933 951.562668,8.51975791 C951.592609,8.39984684 951.592609,8.28008399 951.622549,8.16046937 L951.622549,7.98067688 C951.65249,7.68126976 951.412964,7.38186265 951.113557,7.35207016 C950.933913,7.32212945 950.754269,7.41180336 950.604565,7.56165514 C950.484802,7.68126976 950.424921,7.83112154 950.424921,7.98067688 L950.424921,8.13052866 C950.424921,8.2502915 950.454862,8.37005435 950.484802,8.48966897 C950.514743,8.54969862 950.514743,8.60958004 950.514743,8.66946146 L950.514743,8.69940217 C950.574625,9.02875 950.574625,9.35809783 950.574625,9.71738636 C950.544684,9.8072085 950.514743,9.89703063 950.424921,9.95691206 L950.424921,10.0167935 L950.39498,10.2563192 C950.065632,10.2862599 949.736285,10.3461413 949.376848,10.4060227 C947.969634,10.7054298 946.682184,11.4539476 945.69414,12.5018725 L945.514496,12.3821097 L945.484555,12.3821097 C945.454615,12.3821097 945.424674,12.4120504 945.364792,12.4120504 C945.304911,12.4120504 945.24503,12.3821097 945.185148,12.352169 C944.915682,12.142584 944.646215,11.9030583 944.43663,11.6635326 C944.40669,11.6036512 944.346808,11.5737105 944.316868,11.5437698 C944.227045,11.4539476 944.167164,11.3641255 944.077342,11.2743034 C944.047401,11.2443626 944.01746,11.2443626 943.98752,11.2144219 L943.957579,11.1844812 C943.837816,11.0946591 943.688113,11.0347777 943.538409,11.0347777 C943.358765,11.0347777 943.209061,11.0946591 943.119239,11.2443626 C942.939595,11.5138291 942.999476,11.8731176 943.239002,12.0827026 C943.268943,12.0827026 943.268943,12.1126433 943.268943,12.1126433 C943.268943,12.1126433 943.328824,12.1725247 943.358765,12.1725247 C943.448587,12.2324061 943.56835,12.2922875 943.688113,12.352169 C943.747994,12.3821097 943.807875,12.4120504 943.867757,12.4419911 C944.167164,12.6216354 944.466571,12.8012796 944.706097,13.0409536 C944.760642,13.0953508 944.814447,13.1994022 944.800958,13.2855188 L944.795919,13.280331 L944.795919,13.3102717 C944.798587,13.3022678 944.799773,13.2939674 944.800958,13.2855188 L944.975563,13.4599753 C944.945623,13.5198567 944.915682,13.5497974 944.885741,13.6096789 C943.957579,15.0767737 943.56835,16.8134832 943.837816,18.5201038 L943.598291,18.5799852 C943.598291,18.6099259 943.56835,18.6099259 943.56835,18.6099259 C943.538409,18.699748 943.448587,18.7597777 943.358765,18.8195109 C943.029417,18.909333 942.700069,18.9693626 942.340781,18.9991551 C942.280899,18.9991551 942.221018,18.9991551 942.161136,19.0290958 C942.041374,19.0290958 941.921611,19.0590366 941.801848,19.0590366 C941.771759,19.0590366 941.741966,19.0889773 941.681937,19.0889773 C941.652144,19.0889773 941.652144,19.0889773 941.622204,19.118918 C941.292708,19.1787994 941.083123,19.4782065 941.143152,19.8075543 C941.202885,20.0770208 941.472352,20.256665 941.741966,20.2267243 C941.801848,20.2267243 941.831789,20.2267243 941.891522,20.1967836 C941.921611,20.1967836 941.921611,20.1967836 941.921611,20.1669911 C941.921611,20.1370504 942.011433,20.1669911 942.041374,20.1669911 C942.161136,20.1370504 942.280899,20.0770208 942.370721,20.04708 C942.430603,20.0171393 942.490484,19.9871986 942.550366,19.9871986 L942.580158,19.9871986 C942.909654,19.8674358 943.209061,19.7776136 943.56835,19.7177322 L943.598291,19.7177322 C943.688113,19.7177322 943.777935,19.7478211 943.837816,19.8075543 C943.867757,19.8075543 943.867757,19.8374951 943.867757,19.8374951 L944.137223,19.8075543 C944.586334,21.1848271 945.424674,22.4125445 946.592362,23.3107658 C946.861828,23.5203508 947.101354,23.6999951 947.400761,23.8495504 L947.251057,24.0591354 C947.251057,24.0892243 947.280998,24.0892243 947.280998,24.0892243 C947.341028,24.1790464 947.341028,24.2988093 947.310939,24.3886314 C947.191176,24.6880385 947.011532,24.9874457 946.831887,25.2569121 L946.831887,25.2868528 C946.801947,25.3467342 946.772006,25.3766749 946.712125,25.4365563 C946.652243,25.4964377 946.592362,25.6162006 946.50254,25.7359634 C946.472599,25.7659042 946.472599,25.7958449 946.442658,25.8257856 C946.442658,25.8257856 946.442658,25.8558745 946.412717,25.8558745 C946.263014,26.1551334 946.382777,26.5144219 946.652243,26.6641255 C946.712125,26.6940662 946.801947,26.7240069 946.861828,26.7240069 C947.101354,26.7240069 947.310939,26.5743034 947.43085,26.3647184 C947.43085,26.3647184 947.43085,26.3347777 947.460642,26.3347777 C947.460642,26.304837 947.490583,26.2748962 947.520672,26.2451038 C947.550613,26.1251927 947.610346,26.0353706 947.640287,25.9156077 L947.700168,25.7359634 C947.78999,25.4066156 947.939842,25.1072085 948.089397,24.8078014 C948.149427,24.7179792 948.239249,24.6579496 948.329071,24.6281571 C948.359012,24.6281571 948.359012,24.6281571 948.359012,24.5982164 L948.478626,24.3586907 C949.317115,24.6880385 950.185395,24.8375939 951.083617,24.8375939 C951.622549,24.8375939 952.161482,24.7778607 952.700415,24.6281571 C953.029763,24.5682757 953.359111,24.4483646 953.658518,24.3586907 L953.778281,24.5682757 C953.808221,24.5682757 953.808221,24.5682757 953.808221,24.5982164 C953.898043,24.6280089 953.987866,24.6880385 954.047747,24.7778607 C954.197451,25.0772678 954.347154,25.3766749 954.437125,25.7060227 L954.437125,25.7359634 L954.496858,25.9156077 C954.526947,26.0353706 954.556739,26.1551334 954.616769,26.2451038 C954.646561,26.2748962 954.646561,26.304837 954.676502,26.3347777 C954.676502,26.3347777 954.676502,26.3647184 954.706443,26.3647184 C954.826354,26.5743034 955.035939,26.7240069 955.275316,26.7240069 C955.365138,26.7240069 955.425168,26.6940662 955.51499,26.6641255 C955.634753,26.6042441 955.754368,26.4844812 955.784308,26.3347777 C955.814397,26.1850741 955.814397,26.0353706 955.754368,25.885667 C955.754368,25.8557263 955.724575,25.8557263 955.724575,25.8557263 C955.724575,25.8257856 955.694486,25.7958449 955.664545,25.7659042 C955.604812,25.6461413 955.544931,25.5563192 955.455109,25.466497 C955.425168,25.4066156 955.395079,25.3766749 955.335346,25.3167935 L955.335346,25.2569121 C955.125761,24.9874457 954.975909,24.6880385 954.856146,24.3886314 C954.826354,24.2988093 954.826354,24.1790464 954.886087,24.0892243 C954.886087,24.0591354 954.916176,24.0591354 954.916176,24.0591354 L954.826354,23.8197579 C956.35333,22.8915958 957.521018,21.4542935 958.059951,19.7478211 L958.299476,19.7776136 C958.329417,19.7776136 958.329417,19.7478211 958.329417,19.7478211 C958.389298,19.6877915 958.479121,19.6578508 958.568943,19.6578508 L958.598883,19.6578508 C958.928231,19.7177322 959.257579,19.8075543 959.556986,19.9273172 L959.586927,19.9273172 C959.646808,19.9574061 959.70669,19.9871986 959.766571,19.9871986 C959.886334,20.04708 959.976156,20.1069615 960.095919,20.1370504 C960.12586,20.1370504 960.1558,20.1669911 960.215682,20.1669911 C960.245623,20.1669911 960.245623,20.1669911 960.275563,20.1967836 C960.335445,20.2267243 960.365385,20.2267243 960.425267,20.2267243 Z M949.616462,15.2565217 C949.52664,15.2565217 949.466759,15.226581 949.376937,15.1966403 L946.891858,13.4301383 C947.670316,12.6814723 948.628419,12.1425395 949.676344,11.9030138 L950.275158,11.783251 L950.125455,14.7774704 C950.125455,15.0469368 949.885929,15.2565217 949.616462,15.2565217 Z M948.478686,19.0890069 C948.718211,19.0890069 948.957737,19.2387105 948.987678,19.4782362 C949.017619,19.5679101 949.017619,19.6878211 948.957737,19.7776433 L947.81999,22.5321887 C946.772065,21.8435524 945.933725,20.7956275 945.514555,19.597999 L948.478686,19.0890069 Z M948.299042,17.2026532 C948.23916,17.2924753 948.179279,17.3225642 948.059516,17.3523567 L945.155267,18.1906966 C945.065445,16.933335 945.364852,15.6457362 946.023399,14.5379298 L948.23916,16.5140168 C948.448745,16.6936611 948.478686,16.9930682 948.299042,17.2026532 Z M951.981853,15.0469368 C951.921971,14.9870553 951.892031,14.9271739 951.892031,14.8373518 L951.712386,11.8133399 C953.029778,11.9628953 954.197465,12.5317688 955.095687,13.4301383 L952.640548,15.1666996 C952.430963,15.2864625 952.131556,15.2565217 951.981853,15.0469368 Z M950.215292,18.2506225 L950.005707,17.3823419 L950.57458,16.6637648 L951.472801,16.6637648 L952.041675,17.3823419 L951.83209,18.2506225 L951.023691,18.6398518 L950.215292,18.2506225 Z M953.269318,19.1189625 C953.35914,19.0890217 953.448962,19.059081 953.538785,19.059081 L956.533004,19.5679249 C956.383152,19.9870949 956.203508,20.3764723 955.963982,20.7058202 C955.514872,21.4243972 954.886117,22.0531522 954.16754,22.5022628 L952.999852,19.687836 C952.93997,19.4483103 953.059733,19.2086364 953.269318,19.1189625 Z M951.203335,20.3765316 C951.293157,20.4362648 951.353039,20.4962945 951.442861,20.5861166 L952.880163,23.1909585 C952.700519,23.220751 952.520726,23.2508399 952.311141,23.3107213 C951.891971,23.4005435 951.472801,23.4604249 951.023691,23.4604249 C950.394936,23.4604249 949.73624,23.3406621 949.137426,23.1610178 L950.604521,20.4962945 C950.754224,20.3166502 950.99375,20.2566206 951.203335,20.3765316 Z M955.993967,14.5379298 C956.323315,15.0768626 956.562841,15.6756769 956.712544,16.3044318 C956.862248,16.933335 956.892189,17.5619417 956.832307,18.1906966 L953.98794,17.3822974 C953.718325,17.3225642 953.56877,17.0529496 953.628651,16.7834832 C953.658592,16.6936611 953.688533,16.6337796 953.748414,16.5738982 L955.993967,14.5379298 Z M975.605504,17.8913636 C975.934852,17.5320751 976.234259,17.1726383 976.593547,16.813498 C976.922895,16.4242688 977.252243,16.0649802 977.581739,15.7055435 C977.910939,15.3163142 978.210346,14.9869664 978.47996,14.6576186 C978.749279,14.3282708 979.018745,14.0288636 979.22833,13.7893379 L983.060889,13.7893379 C982.282431,14.6576186 981.533913,15.5260474 980.815336,16.3344466 C980.066818,17.1426976 979.28836,17.9810375 978.419931,18.8195257 C978.89913,19.2686364 979.348241,19.717747 979.767411,20.2267391 C980.216522,20.7658202 980.665632,21.3046047 981.114743,21.903419 C981.533913,22.4722925 981.953083,23.0711067 982.312372,23.6399802 C982.67166,24.209002 982.971067,24.7479348 983.210593,25.2269862 L979.497945,25.2269862 C979.258419,24.8376087 978.988953,24.4483794 978.689545,23.999417 C978.390138,23.5503063 978.060642,23.1010474 977.761235,22.621996 C977.431887,22.1730336 977.072599,21.7237747 976.68337,21.3046047 C976.354022,20.9153755 975.994733,20.5562352 975.605504,20.2566798 L975.605504,25.2567787 L972.371907,25.2567787 L972.371907,8.84912055 L975.605504,8.34012846 L975.605504,17.8913636 Z M994.468597,24.7778755 C993.77996,24.9575198 993.061383,25.1072233 992.342658,25.1970455 C991.444437,25.346749 990.516275,25.4066304 989.618053,25.4066304 C988.779713,25.4365711 987.971314,25.2868676 987.192856,25.0174012 C986.594042,24.7778755 986.085049,24.418587 985.665879,23.9395356 C985.27665,23.4303953 985.007036,22.8615217 984.857332,22.2327668 C984.677836,21.5442787 984.617806,20.7956126 984.617806,20.0770356 L984.617806,13.7593972 L987.851551,13.7593972 L987.851551,19.717747 C987.851551,20.7658202 988.001255,21.5141897 988.270721,21.9634486 C988.540188,22.4124111 989.04918,22.6519368 989.797698,22.6519368 C990.037223,22.6519368 990.276749,22.6519368 990.546215,22.621996 C990.815682,22.5922036 991.025267,22.5922036 991.234852,22.5323221 L991.234852,13.7593972 L994.468597,13.7593972 L994.468597,24.7778755 Z M1008.12171,19.5081621 C1008.12171,20.346502 1008.00195,21.1849901 1007.70254,21.9933893 C1007.46316,22.7118182 1007.07393,23.3407213 1006.56494,23.8795059 C1006.02586,24.418587 1005.3971,24.8376087 1004.70847,25.1072233 C1003.90007,25.4066304 1003.06173,25.5263933 1002.19345,25.5263933 C1001.80422,25.5263933 1001.38505,25.4964526 1000.96588,25.4663636 C1000.54671,25.4365711 1000.12739,25.3766897 999.708221,25.346749 C999.318992,25.2868676 998.929763,25.2269862 998.540534,25.137164 C998.151304,25.0771344 997.821957,24.9874605 997.55249,24.8675494 L997.55249,8.84912055 L1000.78624,8.34012846 L1000.78624,14.0288636 C1001.14552,13.8791601 1001.53475,13.7593972 1001.92398,13.6695751 C1002.34315,13.579753 1002.76232,13.5498123 1003.18149,13.5498123 C1003.93001,13.5498123 1004.64859,13.6695751 1005.33722,13.9989229 C1005.93604,14.2683893 1006.47512,14.6875593 1006.89414,15.1965514 C1007.3434,15.7655731 1007.67275,16.3941798 1007.85239,17.0829644 C1008.03204,17.8314822 1008.12171,18.6698221 1008.12171,19.5081621 Z M1004.82823,19.3883992 C1004.82823,17.2925494 1004.04977,16.274417 1002.5228,16.274417 C1002.19345,16.274417 1001.8641,16.3043577 1001.53475,16.3941798 C1001.26529,16.4542095 1000.99582,16.5739723 1000.75629,16.7236759 L1000.75629,22.5922036 C1000.90585,22.621996 1001.11543,22.6519368 1001.35511,22.6818775 C1001.59463,22.7118182 1001.8641,22.7118182 1002.16351,22.7118182 C1002.94197,22.7718478 1003.69048,22.4423518 1004.16954,21.8135968 C1004.61865,21.0950198 1004.85817,20.2566798 1004.82823,19.3883992 Z M1010.068,19.5681917 C1010.03806,18.6698221 1010.21771,17.7714526 1010.51711,16.9332609 C1010.78658,16.2145356 1011.20575,15.5857806 1011.74468,15.0169071 C1012.25368,14.507915 1012.82255,14.1186858 1013.48125,13.8791601 C1014.13994,13.6096937 1014.82873,13.4899308 1015.51721,13.4899308 C1017.13416,13.4899308 1018.42161,13.9989229 1019.34977,14.9869664 C1020.27808,15.9750099 1020.75699,17.442253 1020.75699,19.3285178 C1020.75699,19.5081621 1020.75699,19.717747 1020.72705,19.9572727 C1020.69725,20.1967984 1020.69725,20.3765909 1020.69725,20.5562352 L1013.36163,20.5562352 C1013.42136,21.1849901 1013.75086,21.7838043 1014.28964,22.1430929 C1014.94849,22.5622628 1015.72695,22.7718478 1016.50526,22.7419071 C1017.07413,22.7419071 1017.67294,22.6818775 1018.24197,22.5922036 C1018.72102,22.5022332 1019.20007,22.3526779 1019.64918,22.1730336 L1020.09844,24.8078162 C1019.88885,24.9275791 1019.64918,24.9874605 1019.40965,25.0771344 C1019.08045,25.1671047 1018.75096,25.2567787 1018.42161,25.2868676 C1018.06232,25.346749 1017.70303,25.4066304 1017.28386,25.4663636 C1016.89449,25.4964526 1016.47532,25.5263933 1016.05629,25.5263933 C1015.12813,25.556334 1014.22991,25.4066304 1013.36163,25.0771344 C1012.64291,24.8078162 1012.01415,24.3886462 1011.47522,23.8495652 C1010.96623,23.3107806 1010.60694,22.6519368 1010.36741,21.9634486 C1010.18777,21.1550494 1010.068,20.3765909 1010.068,19.5680435 L1010.068,19.5681917 Z M1017.67309,18.3404743 C1017.67309,18.0710079 1017.61321,17.8015415 1017.52339,17.5320751 C1017.46351,17.2626087 1017.3138,17.0530237 1017.1641,16.8434387 C1016.98446,16.6338538 1016.77487,16.4542095 1016.53535,16.3344466 C1016.23594,16.1845949 1015.93653,16.1248617 1015.60718,16.1248617 C1015.27769,16.1248617 1014.97843,16.1845949 1014.67887,16.3344466 C1014.43935,16.4542095 1014.19997,16.6037648 1014.02033,16.813498 C1013.84053,17.023083 1013.69083,17.2626087 1013.60116,17.5320751 C1013.51119,17.8015415 1013.4513,18.0710079 1013.42136,18.3404743 L1017.67294,18.3404743 L1017.67309,18.3404743 Z M1030.15867,16.6338538 C1029.85911,16.5739723 1029.52991,16.484002 1029.14068,16.4242688 C1028.72136,16.3344466 1028.30219,16.3043577 1027.88302,16.3043577 C1027.6435,16.3043577 1027.40397,16.3344466 1027.13451,16.3643874 C1026.92492,16.3941798 1026.71534,16.4242688 1026.50575,16.484002 L1026.50575,25.1970455 L1023.27215,25.1970455 L1023.27215,14.3582115 C1023.93085,14.1186858 1024.61949,13.9390415 1025.30812,13.7893379 C1026.17655,13.579753 1027.07462,13.4899308 1027.94305,13.5198715 C1028.15264,13.5198715 1028.36222,13.5498123 1028.57181,13.5498123 C1028.81119,13.5498123 1029.05071,13.579753 1029.32033,13.6396344 C1029.55985,13.6695751 1029.79938,13.6995158 1030.0687,13.7593972 C1030.27828,13.7893379 1030.48787,13.8492194 1030.69745,13.9390415 L1030.15867,16.6338538 Z M1032.43416,14.1487747 C1033.1228,13.9689822 1033.84137,13.8192787 1034.55995,13.6995158 C1035.45832,13.5498123 1036.38633,13.4899308 1037.2847,13.4899308 C1038.0931,13.4599901 1038.9015,13.6096937 1039.67996,13.8791601 C1040.27877,14.0887451 1040.81771,14.4481818 1041.20694,14.927085 C1041.59617,15.4061364 1041.86563,15.9750099 1042.01534,16.5739723 C1042.19513,17.2626087 1042.25486,17.9810375 1042.25486,18.6997628 L1042.25486,25.137164 L1039.05121,25.137164 L1039.05121,19.1189328 C1039.05121,18.0710079 1038.9015,17.3522826 1038.63204,16.9033202 C1038.36242,16.484002 1037.85358,16.2446245 1037.10506,16.2446245 C1036.86553,16.2446245 1036.62601,16.2446245 1036.35639,16.2745652 C1036.08708,16.2745652 1035.87749,16.3043577 1035.66791,16.3344466 L1035.66791,25.137164 L1032.43416,25.137164 L1032.43416,14.1487747 Z M1044.71015,19.5681917 C1044.68006,18.6698221 1044.8597,17.7714526 1045.15926,16.9332609 C1045.42873,16.2145356 1045.8479,15.5857806 1046.38683,15.0169071 C1046.89582,14.507915 1047.46484,14.1186858 1048.12339,13.8791601 C1048.78208,13.6096937 1049.47087,13.4899308 1050.15936,13.4899308 C1051.77616,13.4899308 1053.06375,13.9989229 1053.99192,14.9869664 C1054.92008,15.9750099 1055.39913,17.442253 1055.39913,19.3584585 C1055.39913,19.5381028 1055.39913,19.7476877 1055.36934,19.9872134 C1055.33925,20.2267391 1055.33925,20.4063834 1055.33925,20.5860277 L1048.00363,20.5860277 C1048.06366,21.2147826 1048.39286,21.8135968 1048.93179,22.1730336 C1049.59048,22.5922036 1050.36894,22.8017885 1051.1474,22.7718478 C1051.71642,22.7718478 1052.31524,22.7118182 1052.88411,22.621996 C1053.36301,22.5323221 1053.84221,22.3826186 1054.32126,22.1730336 L1054.77038,24.8078162 C1054.56079,24.9275791 1054.32126,24.9874605 1054.08174,25.0771344 C1053.75224,25.1671047 1053.42304,25.2567787 1053.0937,25.2868676 C1052.73426,25.346749 1052.37497,25.4066304 1051.9558,25.4663636 C1051.56657,25.4964526 1051.1474,25.5263933 1050.72823,25.5263933 C1049.80007,25.556334 1048.90185,25.4066304 1048.03357,25.0771344 C1047.31499,24.8078162 1046.68624,24.3886462 1046.1473,23.8495652 C1045.63831,23.3107806 1045.27887,22.6519368 1045.03935,21.9634486 C1044.79997,21.1550494 1044.68006,20.346502 1044.71015,19.5681917 Z M1052.2853,18.3404743 C1052.2853,18.0710079 1052.22542,17.8015415 1052.13544,17.5320751 C1052.07571,17.2626087 1051.92586,17.0530237 1051.77616,16.8434387 C1051.59666,16.6338538 1051.38693,16.4542095 1051.1474,16.3344466 C1050.84814,16.1845949 1050.54859,16.1248617 1050.21939,16.1248617 C1049.88989,16.1248617 1049.59048,16.1845949 1049.29108,16.3344466 C1049.0517,16.4542095 1048.84211,16.6037648 1048.66247,16.813498 C1048.48268,17.023083 1048.33297,17.2626087 1048.24315,17.5320751 C1048.15333,17.8015415 1048.09345,18.0710079 1048.06351,18.3404743 L1052.2853,18.3404743 Z M1057.79454,10.9150296 L1061.02813,10.4060375 L1061.02813,13.7593972 L1064.92042,13.7593972 L1064.92042,16.4542095 L1061.02813,16.4542095 L1061.02813,20.4662648 C1060.99819,21.0351383 1061.11795,21.6040119 1061.38742,22.0830632 C1061.62695,22.4722925 1062.106,22.6818775 1062.85466,22.6818775 C1063.2138,22.6818775 1063.57309,22.6519368 1063.90244,22.5922036 C1064.26188,22.5323221 1064.59108,22.4423518 1064.92042,22.3225889 L1065.36954,24.8376087 C1064.95037,25.0174012 1064.5014,25.137164 1064.05229,25.2567787 C1063.48342,25.3766897 1062.8846,25.4365711 1062.28564,25.4365711 C1061.53712,25.4663636 1060.78861,25.346749 1060.09997,25.0771344 C1059.56104,24.8675494 1059.08184,24.5084091 1058.7227,24.0890909 C1058.36341,23.6399802 1058.12388,23.1010474 1057.97418,22.5323221 C1057.82433,21.8734783 1057.76459,21.1849901 1057.79454,20.5261462 L1057.79454,10.9150296 Z M1066.56716,19.5681917 C1066.53737,18.6698221 1066.71702,17.7714526 1067.01642,16.9332609 C1067.28589,16.2145356 1067.70506,15.5857806 1068.24399,15.0169071 C1068.75313,14.507915 1069.32186,14.1186858 1069.9807,13.8791601 C1070.63925,13.6096937 1071.32803,13.4899308 1072.01667,13.4899308 C1073.63347,13.4899308 1074.92092,13.9989229 1075.84923,14.9869664 C1076.77724,15.9750099 1077.25644,17.442253 1077.25644,19.3584585 C1077.25644,19.5381028 1077.25644,19.7476877 1077.2265,19.9872134 C1077.2265,20.2267391 1077.19641,20.4063834 1077.19641,20.5860277 L1069.89073,20.5860277 C1069.95076,21.2147826 1070.27996,21.8135968 1070.81889,22.1730336 C1071.47759,22.5922036 1072.25605,22.8017885 1073.03451,22.7718478 C1073.60353,22.7718478 1074.20234,22.7118182 1074.77122,22.621996 C1075.25042,22.5323221 1075.72932,22.3826186 1076.17843,22.1730336 L1076.62754,24.8078162 C1076.41795,24.9275791 1076.17843,24.9874605 1075.9389,25.0771344 C1075.60956,25.1671047 1075.28021,25.2567787 1074.95086,25.2868676 C1074.59157,25.346749 1074.23228,25.4066304 1073.81311,25.4663636 C1073.42388,25.4964526 1073.00471,25.5263933 1072.58554,25.5263933 C1071.65723,25.556334 1070.75916,25.4066304 1069.89073,25.0771344 C1069.1723,24.8078162 1068.5434,24.3886462 1068.00447,23.8495652 C1067.49547,23.3107806 1067.13619,22.6519368 1066.89666,21.9634486 C1066.68708,21.1550494 1066.56716,20.346502 1066.56716,19.5680435 L1066.56716,19.5681917 Z M1074.14246,18.3404743 C1074.14246,18.0710079 1074.08258,17.8015415 1073.99276,17.5320751 C1073.93288,17.2626087 1073.78317,17.0530237 1073.63347,16.8434387 C1073.45368,16.6338538 1073.24409,16.4542095 1073.00471,16.3344466 C1072.70531,16.1845949 1072.4059,16.1248617 1072.0764,16.1248617 C1071.7472,16.1248617 1071.44765,16.1845949 1071.14839,16.3344466 C1070.90872,16.4542095 1070.66919,16.6037648 1070.48955,16.813498 C1070.3099,17.023083 1070.16035,17.2626087 1070.07038,17.5320751 C1069.9807,17.8015415 1069.92067,18.0710079 1069.89073,18.3404743 L1074.14246,18.3404743 Z M1083.06494,22.8615217 C1083.48411,22.8914625 1083.93337,22.831581 1084.3226,22.6818775 C1084.56212,22.5622628 1084.71183,22.2926482 1084.68174,22.0231818 C1084.6518,21.7237747 1084.47215,21.4543083 1084.20269,21.3646344 C1083.75373,21.0950198 1083.24458,20.8554941 1082.73559,20.7057905 C1082.2266,20.5261462 1081.77749,20.3165613 1081.35832,20.1069763 C1080.96909,19.927332 1080.63974,19.6878063 1080.3104,19.3883992 C1080.01099,19.0889921 1079.8014,18.7596443 1079.6517,18.3702668 C1079.47206,17.9213043 1079.41217,17.442253 1079.41217,16.9630534 C1079.38208,15.9750099 1079.83134,15.0169071 1080.6098,14.4180929 C1081.4182,13.7893379 1082.49607,13.4899308 1083.87334,13.4899308 C1084.53218,13.4899308 1085.22067,13.5498123 1085.87937,13.6995158 C1086.38851,13.7893379 1086.8975,13.9091008 1087.40649,14.0887451 L1086.83747,16.6338538 C1086.41845,16.484002 1086.02907,16.3941798 1085.6099,16.2745652 C1085.131,16.1548024 1084.62186,16.1248617 1084.14295,16.1248617 C1083.12482,16.1248617 1082.61583,16.3941798 1082.61583,16.9630534 C1082.61583,17.0829644 1082.64577,17.2027273 1082.67571,17.3224901 C1082.73559,17.442253 1082.82542,17.5320751 1082.94533,17.6218972 C1083.06494,17.7117194 1083.24458,17.8015415 1083.45417,17.9213043 C1083.66375,18.0410672 1083.96331,18.1606818 1084.3226,18.2805929 C1084.92141,18.4901779 1085.52023,18.759496 1086.05901,19.0590514 C1086.47818,19.2686364 1086.83747,19.5381028 1087.13703,19.8973913 C1087.40649,20.1670059 1087.58614,20.4962055 1087.7059,20.8854348 C1087.82566,21.3046047 1087.88554,21.7237747 1087.88554,22.1430929 C1087.94542,23.1610771 1087.46623,24.1491206 1086.59809,24.7179941 C1085.75975,25.2868676 1084.56212,25.5862747 1083.00506,25.5862747 C1082.13678,25.6162154 1081.29844,25.5263933 1080.4601,25.3168083 C1079.98105,25.1970455 1079.53194,25.0471937 1079.08283,24.8976383 L1079.62176,22.2627075 C1080.16054,22.4722925 1080.72957,22.6519368 1081.29844,22.7718478 C1081.89725,22.8017885 1082.46613,22.8615217 1083.06494,22.8615217 Z" id="kubernetes"></path>
                    </g>
                </g>
            </g>
        </g>
    </g>
</svg>