<?xml version="1.0" encoding="UTF-8"?>
<svg width="70px" height="105px" viewBox="0 0 70 105" version="1.1" xmlns="http://www.w3.org/2000/svg" xmlns:xlink="http://www.w3.org/1999/xlink">
    <!-- Generator: Sketch 50.2 (55047) - http://www.bohemiancoding.com/sketch -->
    <title>bolt copy</title>
    <desc>Created with Sketch.</desc>
    <defs></defs>
    <g id="Page-Designs" stroke="none" stroke-width="1" fill="none" fill-rule="evenodd">
        <g id="home" transform="translate(-399.000000, -494.000000)" stroke="#F15953" stroke-width="2">
            <g id="Hero">
                <g id="product-icons" transform="translate(345.000000, 496.000000)">
                    <g id="framework">
                        <g id="bolt-copy" transform="translate(55.000000, 0.000000)">
                            <path d="M52.7421175,36.0441248 L65.6246797,15.8371499 L65.8032502,0.163883931 C65.6863233,0.068867497 65.7183884,0.0950164338 65.6014615,0 C45.2799538,16.2074217 21.2588158,35.6298591 0.937308173,51.837022 C0.967346131,51.8986402 0.960465629,55.0160593 0.916666667,61.1892791 L24.9365942,57.514702 C16.6419715,70.2458686 7.94919971,84.1599177 7.94919971,84.1599177 L8.00235866,100 L67.3611111,49.9317548 L67.1787307,34.5292827 C67.1787307,34.5292827 56.4746562,35.6353211 52.7421175,36.0441248 Z" id="Stroke-1"></path>
                            <path d="M66.9179987,34.6362798 L8.14324984,83.8919734 C8.13901689,83.8955208 8.13270968,83.8949651 8.12916229,83.8907321 C8.12635163,83.8873783 8.12604798,83.8825865 8.12841281,83.8789047 L31.2033691,47.9534443 L0.895035873,52.5858903 C0.889576427,52.5867247 0.884474222,52.5829754 0.883639778,52.577516 C0.883103212,52.5740054 0.884468752,52.5704737 0.887227376,52.5682372 L64.9233159,0.652772174 C64.927606,0.649294104 64.9339033,0.649952376 64.9373814,0.654242466 C64.9401903,0.657707196 64.9403651,0.662613308 64.9378097,0.666269092 L39.2448527,37.4239408 L66.9105668,34.6186664 C66.9160615,34.6181093 66.9209674,34.6221119 66.9215246,34.6276066 C66.9218589,34.6309033 66.9205384,34.6341515 66.9179987,34.6362798 Z" id="Stroke-3"></path>
                        </g>
                    </g>
                </g>
            </g>
        </g>
    </g>
</svg>