<?xml version="1.0" encoding="UTF-8"?>
<svg width="100px" height="75px" viewBox="0 0 100 75" version="1.1" xmlns="http://www.w3.org/2000/svg" xmlns:xlink="http://www.w3.org/1999/xlink">
    <!-- Generator: Sketch 50.2 (55047) - http://www.bohemiancoding.com/sketch -->
    <title>Group</title>
    <desc>Created with Sketch.</desc>
    <defs></defs>
    <g id="Page-Designs" stroke="none" stroke-width="1" fill="none" fill-rule="evenodd">
        <g id="home" transform="translate(-1115.000000, -508.000000)" stroke-width="2">
            <g id="Hero">
                <g id="product-icons" transform="translate(345.000000, 496.000000)">
                    <g id="dashboard" transform="translate(730.000000, 12.000000)">
                        <g id="Group" transform="translate(40.000000, 0.000000)">
                            <path d="M4.84615385,6.62692476 L95.1538462,6.62692476 L95.1538462,3.8458278 C95.1538462,2.77756757 95.0804054,2.39725995 94.8713339,2.0063303 C94.7030731,1.69170989 94.4621363,1.45077309 94.1475159,1.28251225 C93.7565862,1.07344079 93.3762786,1 92.3080184,1 L7.69198165,1 C6.62372142,1 6.2434138,1.07344079 5.85248415,1.28251225 C5.53786373,1.45077309 5.29692694,1.69170989 5.1286661,2.0063303 C4.91959463,2.39725995 4.84615385,2.77756757 4.84615385,3.8458278 L4.84615385,6.62692476 Z" id="Rectangle-5" stroke="#F15953"></path>
                            <rect id="Rectangle-5" stroke="#F15953" x="1" y="6.76923077" width="98" height="67.2307692" rx="3"></rect>
                            <polyline id="Path-6" stroke="#FD5750" points="13.681265 59.7092849 30.9363732 40.7958984 46.2712215 48.2309195 57.811561 30.9936523 71.2036133 36.730018 86.8530273 19.5002629"></polyline>
                        </g>
                    </g>
                </g>
            </g>
        </g>
    </g>
</svg>