<?xml version="1.0" encoding="UTF-8"?>
<svg width="280px" height="244px" viewBox="0 0 280 244" version="1.1" xmlns="http://www.w3.org/2000/svg" xmlns:xlink="http://www.w3.org/1999/xlink">
    <!-- Generator: Sketch 50.2 (55047) - http://www.bohemiancoding.com/sketch -->
    <title>illustration</title>
    <desc>Created with Sketch.</desc>
    <defs>
        <linearGradient x1="100%" y1="100%" x2="0%" y2="0%" id="linearGradient-1">
            <stop stop-color="#FF9088" stop-opacity="0.1" offset="0%"></stop>
            <stop stop-color="#FD5750" offset="100%"></stop>
        </linearGradient>
        <linearGradient x1="100%" y1="50%" x2="0%" y2="50%" id="linearGradient-2">
            <stop stop-color="#FF9088" stop-opacity="0" offset="0%"></stop>
            <stop stop-color="#FD5750" offset="100%"></stop>
        </linearGradient>
        <linearGradient x1="100%" y1="100%" x2="0%" y2="0%" id="linearGradient-3">
            <stop stop-color="#FF9088" stop-opacity="0" offset="0%"></stop>
            <stop stop-color="#FD5750" offset="100%"></stop>
        </linearGradient>
        <linearGradient x1="50%" y1="0%" x2="50%" y2="100%" id="linearGradient-4">
            <stop stop-color="#FF9088" stop-opacity="0" offset="0%"></stop>
            <stop stop-color="#FD5750" offset="100%"></stop>
        </linearGradient>
        <linearGradient x1="100%" y1="100%" x2="0%" y2="0%" id="linearGradient-5">
            <stop stop-color="#FF9088" stop-opacity="0.2" offset="0%"></stop>
            <stop stop-color="#FD5750" offset="100%"></stop>
        </linearGradient>
    </defs>
    <g id="Page-Designs" stroke="none" stroke-width="1" fill="none" fill-rule="evenodd">
        <g id="home" transform="translate(-1077.000000, -2539.000000)">
            <g id="Content" transform="translate(0.000000, 1265.000000)">
                <g id="Content-Block-2" transform="translate(192.000000, 1089.000000)">
                    <g id="3-col-content" transform="translate(0.000000, 185.000000)">
                        <g id="dashboard" transform="translate(833.000000, 0.000000)">
                            <g id="illustration" transform="translate(52.000000, 0.000000)">
                                <rect id="Rectangle-18" stroke="url(#linearGradient-1)" fill="#FFFFFF" x="0.5" y="0.5" width="279" height="199"></rect>
                                <rect id="Rectangle-18" stroke="url(#linearGradient-3)" fill-opacity="0.2" fill="url(#linearGradient-2)" x="0.5" y="0.5" width="279" height="23"></rect>
                                <circle id="Oval-6" stroke="url(#linearGradient-4)" cx="17" cy="12" r="4"></circle>
                                <circle id="Oval-6-Copy" stroke="url(#linearGradient-4)" cx="33" cy="12" r="4"></circle>
                                <circle id="Oval-6-Copy-2" stroke="url(#linearGradient-4)" cx="49" cy="12" r="4"></circle>
                                <rect id="Rectangle-18-Copy" stroke="url(#linearGradient-5)" fill="#FFFFFF" x="16.5" y="39.5" width="115" height="63"></rect>
                                <rect id="Rectangle-18-Copy-3" stroke="url(#linearGradient-5)" fill="#FFFFFF" x="16.5" y="119.5" width="115" height="64"></rect>
                                <circle id="Oval-3" stroke="#FD5750" cx="112.5" cy="136.5" r="4.5"></circle>
                                <circle id="Oval-3-Copy" stroke="#FD5750" cx="92.5" cy="150.5" r="4.5"></circle>
                                <circle id="Oval-3-Copy-2" stroke="#FD5750" cx="103.5" cy="156.5" r="4.5"></circle>
                                <circle id="Oval-3-Copy-3" stroke="#FD5750" cx="67.5" cy="147.5" r="4.5"></circle>
                                <circle id="Oval-3-Copy-4" stroke="#FD5750" cx="59.5" cy="162.5" r="4.5"></circle>
                                <circle id="Oval-3-Copy-5" stroke="#FD5750" cx="46.5" cy="174.5" r="4.5"></circle>
                                <circle id="Oval-3-Copy-6" stroke="#FD5750" cx="82.5" cy="162.5" r="4.5"></circle>
                                <circle id="Oval-3-Copy-7" stroke="#FD5750" cx="42.5" cy="152.5" r="4.5"></circle>
                                <path d="M148.5,39.5 L148.5,102.5 L263.5,102.5 L263.5,39.5 L148.5,39.5 Z" id="Rectangle-18-Copy-2" stroke="url(#linearGradient-5)" fill="#FFFFFF"></path>
                                <path d="M148.5,119.5 L148.5,183.5 L263.5,183.5 L263.5,119.5 L148.5,119.5 Z" id="Rectangle-18-Copy-6" stroke="url(#linearGradient-5)" fill="#FFFFFF"></path>
                                <polyline id="Path-14" stroke="#FD5750" points="27 94.390625 38.3339844 77.9121094 62.7792969 83.2128906 70.3105469 64.8652344 101.990234 59.4570312 121.419922 47"></polyline>
                                <path d="M166,95 L166,68" id="Path-15-Copy" stroke="#FD5750"></path>
                                <path d="M182,95 L182,51" id="Path-15-Copy-2" stroke="#FD5750"></path>
                                <path d="M198,95 L198,62" id="Path-15-Copy-3" stroke="#FD5750"></path>
                                <path d="M214,95 L214,57" id="Path-15-Copy-4" stroke="#FD5750"></path>
                                <path d="M230,95 L230,72" id="Path-15-Copy-5" stroke="#FD5750"></path>
                                <path d="M246,95 L246,48" id="Path-15-Copy-6" stroke="#FD5750"></path>
                                <path d="M158,95 L158,71" id="Path-15" stroke="#FD5750"></path>
                                <path d="M174,95 L174,78" id="Path-15-Copy" stroke="#FD5750"></path>
                                <path d="M190,95 L190,67" id="Path-15-Copy-2" stroke="#FD5750"></path>
                                <path d="M206,95 L206,74" id="Path-15-Copy-3" stroke="#FD5750"></path>
                                <path d="M222,95 L222,71" id="Path-15-Copy-4" stroke="#FD5750"></path>
                                <path d="M238,95 L238,80" id="Path-15-Copy-5" stroke="#FD5750"></path>
                                <path d="M254,95 L254,65" id="Path-15-Copy-6" stroke="#FD5750"></path>
                                <polyline id="Path-16" stroke="#FD5750" points="157 151.245117 165.053711 161.268555 181.757812 166.600586 202.037109 148.092773 223.481445 137 237.658203 148.092773 255.972656 137"></polyline>
                                <polyline id="Path-17" stroke="#FD5750" points="159 174.473633 170.379883 156.240234 186.048828 145.987305 205.667969 139.886719 218.463867 151.512695 230.102539 142.22168 252.742188 128"></polyline>
                                <path d="M170.860411,230.758568 L170.860442,230.758537 C187.791345,213.773831 187.701653,186.228705 170.658686,169.241015 C153.61558,152.253188 126.071278,152.253188 109.140484,169.239871 C92.2083534,186.226683 92.298045,213.771789 109.342265,230.757436 C126.384145,247.747333 153.928414,247.747333 170.860411,230.758568 Z" id="Fill-1-Copy" stroke="#FD5750" fill="#FFFFFF"></path>
                                <rect id="Rectangle-5" stroke="#F15953" x="116.5" y="181.5" width="48" height="32" rx="3"></rect>
                                <rect id="Rectangle-5" stroke="#F15953" fill="#FFFFFF" x="114.5" y="184.5" width="51" height="35" rx="3"></rect>
                                <polyline id="Path-6" stroke="#FD5750" points="121.114258 212.048828 130.086914 202.213867 138.061035 206.080078 144.062012 197.116699 151.025879 200.099609 159.163574 191.140137"></polyline>
                            </g>
                        </g>
                    </g>
                </g>
            </g>
        </g>
    </g>
</svg>