<?xml version="1.0" encoding="UTF-8"?>
<svg width="293px" height="243px" viewBox="0 0 293 243" version="1.1" xmlns="http://www.w3.org/2000/svg" xmlns:xlink="http://www.w3.org/1999/xlink">
    <!-- Generator: Sketch 50.2 (55047) - http://www.bohemiancoding.com/sketch -->
    <title>illustration</title>
    <desc>Created with Sketch.</desc>
    <defs>
        <linearGradient x1="100%" y1="100%" x2="0%" y2="0%" id="linearGradient-1">
            <stop stop-color="#FF9088" stop-opacity="0.2" offset="0%"></stop>
            <stop stop-color="#FD5750" offset="100%"></stop>
        </linearGradient>
        <linearGradient x1="100%" y1="50%" x2="1.3976698%" y2="50%" id="linearGradient-2">
            <stop stop-color="#FF9088" stop-opacity="0" offset="0%"></stop>
            <stop stop-color="#FD5750" offset="100%"></stop>
        </linearGradient>
        <linearGradient x1="100%" y1="100%" x2="0%" y2="0%" id="linearGradient-3">
            <stop stop-color="#FF9088" stop-opacity="0" offset="0%"></stop>
            <stop stop-color="#FD5750" offset="100%"></stop>
        </linearGradient>
    </defs>
    <g id="Page-Designs" stroke="none" stroke-width="1" fill="none" fill-rule="evenodd">
        <g id="home" transform="translate(-238.000000, -2540.000000)">
            <g id="Content" transform="translate(0.000000, 1265.000000)">
                <g id="Content-Block-2" transform="translate(192.000000, 1089.000000)">
                    <g id="3-col-content" transform="translate(0.000000, 185.000000)">
                        <g id="Framework" transform="translate(0.000000, 1.000000)">
                            <g id="illustration" transform="translate(46.000000, 0.000000)">
                                <rect id="Rectangle-18" stroke="url(#linearGradient-1)" fill="#FFFFFF" x="72.5" y="0.5" width="149" height="109"></rect>
                                <rect id="Rectangle-18" stroke="url(#linearGradient-3)" fill-opacity="0.2" fill="url(#linearGradient-2)" x="72.5" y="0.5" width="149" height="19"></rect>
                                <rect id="Rectangle-18" fill-opacity="0.7" fill="#FFFFFF" x="72" y="0" width="150" height="110"></rect>
                                <rect id="Rectangle-18" stroke="url(#linearGradient-1)" fill="#FFFFFF" x="48.5" y="88.5" width="149" height="109"></rect>
                                <rect id="Rectangle-18" stroke="url(#linearGradient-3)" fill-opacity="0.2" fill="url(#linearGradient-2)" x="48.5" y="88.5" width="149" height="19"></rect>
                                <rect id="Rectangle-18" fill-opacity="0.7" fill="#FFFFFF" x="48" y="88" width="150" height="110"></rect>
                                <rect id="Rectangle-18" stroke="url(#linearGradient-1)" fill="#FFFFFF" x="0.5" y="48.5" width="149" height="109"></rect>
                                <rect id="Rectangle-18" stroke="url(#linearGradient-3)" fill-opacity="0.2" fill="url(#linearGradient-2)" x="0.5" y="48.5" width="149" height="19"></rect>
                                <rect id="Rectangle-18" fill-opacity="0.7" fill="#FFFFFF" x="0" y="48" width="150" height="110"></rect>
                                <rect id="Rectangle-18" stroke="url(#linearGradient-1)" fill="#FFFFFF" x="128.5" y="48.5" width="149" height="109"></rect>
                                <rect id="Rectangle-18" stroke="url(#linearGradient-3)" fill-opacity="0.2" fill="url(#linearGradient-2)" x="128.5" y="48.5" width="149" height="19"></rect>
                                <rect id="Rectangle-18" fill-opacity="0.7" fill="#FFFFFF" x="128" y="48" width="150" height="110"></rect>
                                <rect id="Rectangle-18" stroke="url(#linearGradient-1)" fill="#FFFFFF" x="24.5" y="32.5" width="149" height="109"></rect>
                                <rect id="Rectangle-18" stroke="url(#linearGradient-3)" fill-opacity="0.2" fill="url(#linearGradient-2)" x="24.5" y="32.5" width="149" height="19"></rect>
                                <text id="serverless.yml-copy" font-family=".AppleSystemUIFont" font-size="12" font-weight="normal" line-spacing="14" letter-spacing="0.5000001" fill="#FD5750">
                                    <tspan x="32" y="46">serverless.yml</tspan>
                                </text>
                                <text id="service:-hello-funct" font-family=".AppleSystemUIFont" font-size="12" font-weight="normal" line-spacing="14" letter-spacing="0.5000001" fill="#5B5B5B">
                                    <tspan x="40" y="77">service: hello</tspan>
                                    <tspan x="40" y="91">functions:</tspan>
                                    <tspan x="43.6679688" y="105">	hello</tspan>
                                </text>
                                <rect id="Rectangle-18-Copy-4" stroke="url(#linearGradient-1)" fill="#FFFFFF" x="143.5" y="63.5" width="149" height="109"></rect>
                                <rect id="Rectangle-18-Copy-5" stroke="url(#linearGradient-3)" fill-opacity="0.2" fill="url(#linearGradient-2)" x="143.5" y="63.5" width="149" height="19"></rect>
                                <text id="terminal" font-family=".AppleSystemUIFont" font-size="12" font-weight="normal" line-spacing="14" letter-spacing="0.5000001" fill="#FD5750">
                                    <tspan x="151" y="77">terminal</tspan>
                                </text>
                                <text id="$-serverless-deploy" font-family=".AppleSystemUIFont" font-size="12" font-weight="normal" line-spacing="14" letter-spacing="0.5000001" fill="#5B5B5B">
                                    <tspan x="159" y="108">$ serverless </tspan>
                                    <tspan x="159" y="122">deploy</tspan>
                                </text>
                                <path d="M176.860411,229.758568 L176.860442,229.758537 C193.791345,212.773831 193.701653,185.228705 176.658686,168.241015 C159.61558,151.253188 132.071278,151.253188 115.140484,168.239871 C98.2083534,185.226683 98.298045,212.771789 115.342265,229.757436 C132.384145,246.747333 159.928414,246.747333 176.860411,229.758568 Z" id="Fill-1-Copy" stroke="#FD5750" fill="#FFFFFF"></path>
                                <path d="M153.839488,193.138532 L159.26826,184.651603 L159.34351,178.068831 C159.294237,178.028924 159.307749,178.039907 159.258475,178 C150.694897,184.807117 140.572277,192.964541 132.008698,199.771549 C132.021357,199.797429 132.018457,201.106745 132,203.699497 L142.12211,202.156175 C138.626717,207.503265 134.963542,213.347165 134.963542,213.347165 L134.985944,220 L160,198.971337 L159.923144,192.502299 C159.923144,192.502299 155.412397,192.966835 153.839488,193.138532 Z" id="Stroke-1" stroke="#F15953"></path>
                                <path d="M159.997028,192.688968 L134.836369,213.997475 C134.832155,214.001044 134.825845,214.000521 134.822275,213.996306 C134.819452,213.992972 134.819119,213.988191 134.821454,213.984499 L144.876566,198.083514 L132.010675,199.883043 C132.005206,199.883808 132.000152,199.879994 131.999387,199.874524 C131.998898,199.87103 132.000287,199.867537 132.003041,199.865332 L159.316034,178.001269 C159.320346,177.997818 159.326639,177.998515 159.330091,178.002827 C159.332838,178.006259 159.333022,178.011084 159.330542,178.014715 L148.471979,193.918315 L159.989489,192.671395 C159.99498,192.670801 159.999913,192.67477 160.000507,192.680261 C160.000864,192.683561 159.999561,192.686823 159.997028,192.688968 Z" id="Stroke-3" stroke="#F15953"></path>
                            </g>
                        </g>
                    </g>
                </g>
            </g>
        </g>
    </g>
</svg>