<?xml version="1.0" encoding="UTF-8"?>
<svg width="346px" height="214px" viewBox="0 0 346 214" version="1.1" xmlns="http://www.w3.org/2000/svg" xmlns:xlink="http://www.w3.org/1999/xlink">
    <!-- Generator: Sketch 50.2 (55047) - http://www.bohemiancoding.com/sketch -->
    <title>Illustration</title>
    <desc>Created with Sketch.</desc>
    <defs>
        <linearGradient x1="50%" y1="0%" x2="50%" y2="100%" id="linearGradient-1">
            <stop stop-color="#FF9088" stop-opacity="0" offset="0%"></stop>
            <stop stop-color="#FD5750" offset="100%"></stop>
        </linearGradient>
        <linearGradient x1="100%" y1="100%" x2="0%" y2="0%" id="linearGradient-2">
            <stop stop-color="#FF9088" stop-opacity="0.2" offset="0%"></stop>
            <stop stop-color="#FD5750" offset="100%"></stop>
        </linearGradient>
        <linearGradient x1="50%" y1="0%" x2="50%" y2="100%" id="linearGradient-3">
            <stop stop-color="#FF9088" stop-opacity="0.2" offset="0%"></stop>
            <stop stop-color="#FD5750" offset="100%"></stop>
        </linearGradient>
    </defs>
    <g id="Page-Designs" stroke="none" stroke-width="1" fill="none" fill-rule="evenodd">
        <g id="home" transform="translate(-628.000000, -2569.000000)">
            <g id="Content" transform="translate(0.000000, 1265.000000)">
                <g id="Content-Block-2" transform="translate(192.000000, 1089.000000)">
                    <g id="3-col-content" transform="translate(0.000000, 185.000000)">
                        <g id="Event-Gateway" transform="translate(305.000000, 30.000000)">
                            <g id="Illustration" transform="translate(131.000000, 0.000000)">
                                <path d="M216.976686,34.6616201 C216.969519,34.6616932 216.969519,34.6616932 216.951247,34.6623081 C216.943852,34.6625677 216.943852,34.6625677 216.935148,34.6628507 C216.915764,34.6634134 216.915764,34.6634134 216.891157,34.6636097 L216.422789,34.6636097 L216.392223,34.1962397 C215.192787,15.8560227 199.853776,1.5 181.280837,1.5 C169.761517,1.5 159.18115,7.04876985 152.612523,16.209537 L152.417317,16.4817755 L152.091291,16.4047976 C149.95876,15.9012876 147.78298,15.6431944 145.585488,15.6431944 C130.073679,15.6431944 117.5,28.147584 117.5,43.5713485 C117.5,58.9952106 130.073777,71.5 145.585488,71.5 L216.976686,71.5 C227.207144,71.5 235.5,63.2526439 235.5,53.0810587 C235.5,42.9087274 227.207394,34.6616201 216.976686,34.6616201 Z" id="Fill-1" stroke="url(#linearGradient-1)" fill="#FFFFFF"></path>
                                <g id="Group-19" transform="translate(73.000000, 84.000000)" fill="#FFFFFF">
                                    <path d="M101.656966,34.1286851 C101.649397,34.1287627 101.649397,34.1287627 101.630759,34.1293888 C101.623245,34.1296519 101.623245,34.1296519 101.614427,34.1299378 C101.594818,34.1305054 101.594818,34.1305054 101.57,34.1307028 L101.101714,34.1307028 L101.071072,33.66342 C99.8512493,15.0614226 84.2510093,0.5 65.3611871,0.5 C53.6452149,0.5 42.8843566,6.12831792 36.2038533,15.420168 L36.0086969,15.6916091 L35.6832827,15.6149815 C33.5141942,15.1042109 31.3011001,14.8423944 29.0659168,14.8423944 C13.2884758,14.8423944 0.5,27.5263486 0.5,43.170945 C0.5,58.8156403 13.2885754,71.5 29.0659168,71.5 L101.656966,71.5 C112.064294,71.5 120.5,63.1330374 120.5,52.8145948 C120.5,42.4953955 112.064548,34.1286851 101.656966,34.1286851 Z" id="Fill-1-Copy-2" stroke="url(#linearGradient-1)"></path>
                                    <path d="M101.656966,33.6286851 C101.627469,33.6286851 101.598989,33.6307028 101.57,33.6307028 C100.338747,14.8543885 84.6035239,0 65.3611871,0 C53.1630835,0 42.3788106,5.97494675 35.7978867,15.1282928 C33.636455,14.6193252 31.3844974,14.3423944 29.0659168,14.3423944 C13.0133448,14.3423944 0,27.2491873 0,43.170945 C0,59.0927026 13.0133448,72 29.0659168,72 L101.656966,72 C112.339524,72 121,63.4100998 121,52.8145948 C121,42.2180809 112.339524,33.6286851 101.656966,33.6286851" id="Fill-1-Copy-2" fill-opacity="0.7"></path>
                                </g>
                                <g id="Group-19-Copy" fill="#FFFFFF">
                                    <path d="M101.656966,34.1286851 C101.649397,34.1287627 101.649397,34.1287627 101.630759,34.1293888 C101.623245,34.1296519 101.623245,34.1296519 101.614427,34.1299378 C101.594818,34.1305054 101.594818,34.1305054 101.57,34.1307028 L101.101714,34.1307028 L101.071072,33.66342 C99.8512493,15.0614226 84.2510093,0.5 65.3611871,0.5 C53.6452149,0.5 42.8843566,6.12831792 36.2038533,15.420168 L36.0086969,15.6916091 L35.6832827,15.6149815 C33.5141942,15.1042109 31.3011001,14.8423944 29.0659168,14.8423944 C13.2884758,14.8423944 0.5,27.5263486 0.5,43.170945 C0.5,58.8156403 13.2885754,71.5 29.0659168,71.5 L101.656966,71.5 C112.064294,71.5 120.5,63.1330374 120.5,52.8145948 C120.5,42.4953955 112.064548,34.1286851 101.656966,34.1286851 Z" id="Fill-1-Copy-2" stroke="url(#linearGradient-1)"></path>
                                    <path d="M101.656966,33.6286851 C101.627469,33.6286851 101.598989,33.6307028 101.57,33.6307028 C100.338747,14.8543885 84.6035239,0 65.3611871,0 C53.1630835,0 42.3788106,5.97494675 35.7978867,15.1282928 C33.636455,14.6193252 31.3844974,14.3423944 29.0659168,14.3423944 C13.0133448,14.3423944 0,27.2491873 0,43.170945 C0,59.0927026 13.0133448,72 29.0659168,72 L101.656966,72 C112.339524,72 121,63.4100998 121,52.8145948 C121,42.2180809 112.339524,33.6286851 101.656966,33.6286851" id="Fill-1-Copy-2" fill-opacity="0.7"></path>
                                </g>
                                <g id="Group-19-Copy-2" transform="translate(225.000000, 22.000000)" fill="#FFFFFF">
                                    <path d="M101.656966,34.1286851 C101.649397,34.1287627 101.649397,34.1287627 101.630759,34.1293888 C101.623245,34.1296519 101.623245,34.1296519 101.614427,34.1299378 C101.594818,34.1305054 101.594818,34.1305054 101.57,34.1307028 L101.101714,34.1307028 L101.071072,33.66342 C99.8512493,15.0614226 84.2510093,0.5 65.3611871,0.5 C53.6452149,0.5 42.8843566,6.12831792 36.2038533,15.420168 L36.0086969,15.6916091 L35.6832827,15.6149815 C33.5141942,15.1042109 31.3011001,14.8423944 29.0659168,14.8423944 C13.2884758,14.8423944 0.5,27.5263486 0.5,43.170945 C0.5,58.8156403 13.2885754,71.5 29.0659168,71.5 L101.656966,71.5 C112.064294,71.5 120.5,63.1330374 120.5,52.8145948 C120.5,42.4953955 112.064548,34.1286851 101.656966,34.1286851 Z" id="Fill-1-Copy-2" stroke="url(#linearGradient-1)"></path>
                                    <path d="M101.656966,33.6286851 C101.627469,33.6286851 101.598989,33.6307028 101.57,33.6307028 C100.338747,14.8543885 84.6035239,0 65.3611871,0 C53.1630835,0 42.3788106,5.97494675 35.7978867,15.1282928 C33.636455,14.6193252 31.3844974,14.3423944 29.0659168,14.3423944 C13.0133448,14.3423944 0,27.2491873 0,43.170945 C0,59.0927026 13.0133448,72 29.0659168,72 L101.656966,72 C112.339524,72 121,63.4100998 121,52.8145948 C121,42.2180809 112.339524,33.6286851 101.656966,33.6286851" id="Fill-1-Copy-2" fill-opacity="0.7"></path>
                                </g>
                                <text id="SaaS" font-family=".AppleSystemUIFont" font-size="14" font-weight="normal" line-spacing="16" letter-spacing="0.5833334" fill="#8C8C8C">
                                    <tspan x="158" y="50">SaaS</tspan>
                                </text>
                                <path d="M150.541453,63.0029215 C150.52806,63.0030658 150.52806,63.0030658 150.503688,63.0038917 C150.494267,63.0042213 150.494267,63.0042213 150.483544,63.0045688 C150.460127,63.0052447 150.460127,63.0052447 150.431488,63.0054716 L149.963215,63.0054716 L149.93256,62.5382036 C148.385585,38.9579183 128.601893,20.5 104.64679,20.5 C89.789357,20.5 76.1428475,27.6343782 67.6710001,39.4124438 L67.4758523,39.6837499 L67.1505417,39.6071815 C64.3979516,38.9593039 61.5893951,38.6271929 58.7527709,38.6271929 C38.7299455,38.6271929 22.5,54.717183 22.5,74.5632777 C22.5,94.4094966 38.7300708,110.5 58.7527709,110.5 L150.541453,110.5 C163.77397,110.5 174.5,99.8662069 174.5,86.7517795 C174.5,73.6363958 163.774292,63.0029215 150.541453,63.0029215 Z" id="Fill-1-Copy-9" stroke="url(#linearGradient-2)" fill="#FFFFFF"></path>
                                <text id="business-events" font-family=".AppleSystemUIFont" font-size="14" font-weight="normal" line-spacing="16" letter-spacing="0.5833334" fill="#8C8C8C">
                                    <tspan x="58" y="72">business</tspan>
                                    <tspan x="65.74056" y="88">events</tspan>
                                </text>
                                <path d="M289.422434,88.3382468 C289.407896,88.3384056 289.407896,88.3384056 289.382296,88.3392817 C289.372456,88.339629 289.372456,88.339629 289.361301,88.3399937 C289.337005,88.3407009 289.337005,88.3407009 289.307438,88.3409371 L288.838898,88.3409371 L288.808492,87.873385 C287.18975,62.9822419 266.490134,43.5 241.428016,43.5 C225.884427,43.5 211.607139,51.0297675 202.743158,63.4613354 L202.547852,63.7352487 L202.22054,63.657532 C199.340607,62.9737224 196.40212,62.6231925 193.43427,62.6231925 C172.483753,62.6231925 155.5,79.6085101 155.5,100.56126 C155.5,121.514141 172.483884,138.5 193.43427,138.5 L289.422434,138.5 C303.271976,138.5 314.5,127.27067 314.5,113.41946 C314.5,99.5672402 303.272312,88.3382468 289.422434,88.3382468 Z" id="Fill-1-Copy-7" stroke="url(#linearGradient-3)" fill="#FFFFFF"></path>
                                <text id="webhooks" font-family=".AppleSystemUIFont" font-size="14" font-weight="normal" line-spacing="16" letter-spacing="0.5833334" fill="#8C8C8C">
                                    <tspan x="192" y="105">webhooks</tspan>
                                </text>
                                <g id="Group-34" transform="translate(129.000000, 126.000000)" stroke="#FD5750">
                                    <path d="M74.8604114,74.7585682 L74.8604421,74.7585373 C91.7913452,57.7738306 91.7016535,30.2287045 74.658686,13.2410153 C57.6155798,-3.74681227 30.0712776,-3.74681227 13.1404836,13.239871 C-3.79164665,30.2266827 -3.70195498,57.7717893 13.342265,74.7574364 C30.3841452,91.7473326 57.928414,91.7473326 74.8604114,74.7585682 Z" id="Fill-1-Copy" fill="#FFFFFF"></path>
                                    <path d="M66.9230736,51.2839867 L43.4997502,26.7251664 L20.1647958,51.2839867 L66.9230736,51.2839867 Z" id="Stroke-1"></path>
                                    <path d="M43.4562838,27.2334774 L28.7798085,60.0950268 L43.4522945,51.1812131 L57.5626034,59.2763271 L43.4562838,27.2334774 Z" id="Stroke-3"></path>
                                </g>
                            </g>
                        </g>
                    </g>
                </g>
            </g>
        </g>
    </g>
</svg>